# Super Mario 64 Power Star
# Centered for camera at (0,0,0) looking down -Z

# --- Vertices ---
# Perimeter (Z = -2.0)
v 0.000000 0.952632 0.000000
v 0.305263 0.321053 0.000000
v 1.000000 0.226316 0.000000
v 0.505263 -0.257895 0.000000
v 0.621053 -0.952632 0.000000
v 0.000000 -0.626316 0.000000
v -0.621053 -0.952632 0.000000
v -0.505263 -0.257895 0.000000
v -1.000000 0.226316 0.000000
v -0.305263 0.321053 0.000000

# Center Points (Thickness)
v 0.000000 -0.100000 0.526316
v 0.000000 -0.100000 -0.526316

# --- Faces (CCW Winding) ---

# Front Faces (Normals point +Z, toward camera)
f 11 1 10
f 11 10 9
f 11 9 8
f 11 8 7
f 11 7 6
f 11 6 5
f 11 5 4
f 11 4 3
f 11 3 2
f 11 2 1

# Back Faces (Normals point -Z, away from camera)
f 12 10 1
f 12 9 10
f 12 8 9
f 12 7 8
f 12 6 7
f 12 5 6
f 12 4 5
f 12 3 4
f 12 2 3
f 12 1 2
