# Blender 5.1.1
# www.blender.org
mtllib utah_teapot.mtl
o Utah_Teapot
v -0.533726 0.186509 -0.000000
v -0.536960 0.179236 -0.044762
v -0.544668 0.161890 -0.067143
v -0.553870 0.141188 -0.067143
v -0.561578 0.123842 -0.044762
v -0.564812 0.116568 -0.000000
v -0.701586 0.185391 -0.000000
v -0.699749 0.178175 -0.044762
v -0.695371 0.160969 -0.067143
v -0.690144 0.140431 -0.067143
v -0.685764 0.123224 -0.044762
v -0.683929 0.116009 -0.000000
v -0.832142 0.177556 -0.000000
v -0.826633 0.170748 -0.044762
v -0.813497 0.154513 -0.067143
v -0.797818 0.135136 -0.067143
v -0.784682 0.118900 -0.044762
v -0.779173 0.112091 -0.000000
v -0.925396 0.156294 -0.000000
v -0.917456 0.150592 -0.044762
v -0.898523 0.136993 -0.067143
v -0.875925 0.120762 -0.067143
v -0.856991 0.107163 -0.044762
v -0.849052 0.101461 -0.000000
v -0.981350 0.114889 -0.000000
v -0.972063 0.111340 -0.044762
v -0.949925 0.102875 -0.067143
v -0.923498 0.092772 -0.067143
v -0.901358 0.084307 -0.044762
v -0.892073 0.080758 -0.000000
v -1.000000 0.046628 -0.000000
v -0.990301 0.046628 -0.044762
v -0.967175 0.046628 -0.067143
v -0.939571 0.046628 -0.067143
v -0.916444 0.046628 -0.044762
v -0.906746 0.046628 -0.000000
v -0.536960 0.179236 0.044762
v -0.544668 0.161890 0.067143
v -0.553870 0.141188 0.067143
v -0.561578 0.123842 0.044762
v -0.699749 0.178175 0.044762
v -0.695371 0.160969 0.067143
v -0.690144 0.140431 0.067143
v -0.685764 0.123224 0.044762
v -0.826633 0.170748 0.044762
v -0.813497 0.154513 0.067143
v -0.797818 0.135136 0.067143
v -0.784682 0.118900 0.044762
v -0.917456 0.150592 0.044762
v -0.898523 0.136993 0.067143
v -0.875925 0.120762 0.067143
v -0.856991 0.107163 0.044762
v -0.972063 0.111340 0.044762
v -0.949925 0.102875 0.067143
v -0.923498 0.092772 0.067143
v -0.901358 0.084307 0.044762
v -0.990301 0.046628 0.044762
v -0.967175 0.046628 0.067143
v -0.939571 0.046628 0.067143
v -0.916444 0.046628 0.044762
v -0.986819 -0.035810 -0.000000
v -0.977690 -0.032357 -0.044762
v -0.955920 -0.024124 -0.067143
v -0.929937 -0.014297 -0.067143
v -0.908166 -0.006064 -0.044762
v -0.899036 -0.002611 -0.000000
v -0.946783 -0.114889 -0.000000
v -0.939309 -0.109381 -0.044762
v -0.921485 -0.096245 -0.067143
v -0.900211 -0.080567 -0.067143
v -0.882389 -0.067431 -0.044762
v -0.874914 -0.061921 -0.000000
v -0.879141 -0.190054 -0.000000
v -0.874332 -0.183245 -0.044762
v -0.862860 -0.167009 -0.067143
v -0.849168 -0.147632 -0.067143
v -0.837698 -0.131397 -0.044762
v -0.832887 -0.124589 -0.000000
v -0.783152 -0.260739 -0.000000
v -0.781936 -0.252749 -0.044762
v -0.779038 -0.233692 -0.067143
v -0.775578 -0.210946 -0.067143
v -0.772679 -0.191889 -0.044762
v -0.771463 -0.183899 -0.000000
v -0.658067 -0.326392 -0.000000
v -0.661299 -0.316692 -0.044762
v -0.669007 -0.293565 -0.067143
v -0.678209 -0.265962 -0.067143
v -0.685919 -0.242836 -0.044762
v -0.689151 -0.233136 -0.000000
v -0.977690 -0.032357 0.044762
v -0.955920 -0.024124 0.067143
v -0.929937 -0.014297 0.067143
v -0.908166 -0.006064 0.044762
v -0.939309 -0.109381 0.044762
v -0.921485 -0.096245 0.067143
v -0.900211 -0.080567 0.067143
v -0.882389 -0.067431 0.044762
v -0.874332 -0.183245 0.044762
v -0.862860 -0.167009 0.067143
v -0.849168 -0.147632 0.067143
v -0.837698 -0.131397 0.044762
v -0.781936 -0.252749 0.044762
v -0.779038 -0.233692 0.067143
v -0.775578 -0.210946 0.067143
v -0.772679 -0.191889 0.044762
v -0.661299 -0.316692 0.044762
v -0.669007 -0.293565 0.067143
v -0.678209 -0.265962 0.067143
v -0.685919 -0.242836 0.044762
v 0.802923 0.233136 -0.000000
v 0.815853 0.233136 -0.022381
v 0.846691 0.233136 -0.033572
v 0.883494 0.233136 -0.033572
v 0.914331 0.233136 -0.022381
v 0.927262 0.233136 -0.000000
v 0.814610 0.244327 -0.000000
v 0.830465 0.244850 -0.023933
v 0.868268 0.246100 -0.035899
v 0.913392 0.247590 -0.035899
v 0.951197 0.248839 -0.023933
v 0.967050 0.249362 -0.000000
v 0.814361 0.249921 -0.000000
v 0.832828 0.250620 -0.027633
v 0.876861 0.252286 -0.041450
v 0.929419 0.254272 -0.041450
v 0.973452 0.255939 -0.027633
v 0.991919 0.256637 -0.000000
v 0.805160 0.249921 -0.000000
v 0.825423 0.250534 -0.032051
v 0.873745 0.251991 -0.048074
v 0.931417 0.253730 -0.048074
v 0.979737 0.255187 -0.032051
v 1.000000 0.255797 -0.000000
v 0.789991 0.244327 -0.000000
v 0.810732 0.244676 -0.035749
v 0.860194 0.245509 -0.053625
v 0.919228 0.246503 -0.053625
v 0.968690 0.247334 -0.035749
v 0.989431 0.247684 -0.000000
v 0.771838 0.233136 -0.000000
v 0.791234 0.233136 -0.037303
v 0.837489 0.233136 -0.055953
v 0.892695 0.233136 -0.055953
v 0.938949 0.233136 -0.037303
v 0.958346 0.233136 -0.000000
v 0.815853 0.233136 0.022381
v 0.846691 0.233136 0.033572
v 0.883494 0.233136 0.033572
v 0.914331 0.233136 0.022381
v 0.830465 0.244850 0.023933
v 0.868268 0.246100 0.035899
v 0.913392 0.247590 0.035899
v 0.951197 0.248839 0.023933
v 0.832828 0.250620 0.027633
v 0.876861 0.252286 0.041450
v 0.929419 0.254272 0.041450
v 0.973452 0.255939 0.027633
v 0.825423 0.250534 0.032051
v 0.873745 0.251991 0.048074
v 0.931417 0.253730 0.048074
v 0.979737 0.255187 0.032051
v 0.810732 0.244676 0.035749
v 0.860194 0.245509 0.053625
v 0.919228 0.246503 0.053625
v 0.968690 0.247334 0.035749
v 0.791234 0.233136 0.037301
v 0.837489 0.233136 0.055953
v 0.892695 0.233136 0.055953
v 0.938949 0.233136 0.037301
v 0.718620 0.165806 -0.000000
v 0.731344 0.162801 -0.043663
v 0.761687 0.155630 -0.065497
v 0.797903 0.147074 -0.065497
v 0.828246 0.139904 -0.043663
v 0.840971 0.136898 -0.000000
v 0.689276 0.086167 -0.000000
v 0.699518 0.077827 -0.058836
v 0.723940 0.057937 -0.088253
v 0.753090 0.034199 -0.088253
v 0.777512 0.014309 -0.058836
v 0.787752 0.005968 -0.000000
v 0.655456 0.009884 -0.000000
v 0.664611 -0.004954 -0.076943
v 0.686443 -0.040339 -0.115414
v 0.712501 -0.082571 -0.115414
v 0.734333 -0.117956 -0.076943
v 0.743488 -0.132795 -0.000000
v 0.588810 -0.047373 -0.000000
v 0.595482 -0.068710 -0.092114
v 0.611393 -0.119590 -0.138172
v 0.630385 -0.180318 -0.138172
v 0.646296 -0.231196 -0.092114
v 0.652969 -0.252533 -0.000000
v 0.460989 -0.069941 -0.000000
v 0.460989 -0.096612 -0.098476
v 0.460989 -0.160212 -0.147715
v 0.460989 -0.236121 -0.147715
v 0.460989 -0.299720 -0.098476
v 0.460989 -0.326392 -0.000000
v 0.731344 0.162801 0.043663
v 0.761687 0.155630 0.065497
v 0.797903 0.147074 0.065497
v 0.828246 0.139904 0.043663
v 0.699518 0.077827 0.058836
v 0.723940 0.057937 0.088253
v 0.753090 0.034199 0.088253
v 0.777512 0.014309 0.058836
v 0.664611 -0.004954 0.076943
v 0.686443 -0.040339 0.115414
v 0.712501 -0.082571 0.115414
v 0.734333 -0.117956 0.076943
v 0.595482 -0.068710 0.092114
v 0.611393 -0.119590 0.138172
v 0.630385 -0.180318 0.138172
v 0.646296 -0.231196 0.092114
v 0.460989 -0.096612 0.098476
v 0.460989 -0.160212 0.147715
v 0.460989 -0.236121 0.147715
v 0.460989 -0.299720 0.098476
v -0.067454 0.466273 -0.000000
v -0.163444 0.456202 -0.000000
v -0.158644 0.456202 -0.030716
v -0.145205 0.456202 -0.057113
v -0.124567 0.456202 -0.077752
v -0.098170 0.456202 -0.091190
v -0.067454 0.456202 -0.095991
v -0.178862 0.430462 -0.000000
v -0.173290 0.430462 -0.035647
v -0.157691 0.430462 -0.066283
v -0.133737 0.430462 -0.090237
v -0.103100 0.430462 -0.105838
v -0.067454 0.430462 -0.111408
v -0.152502 0.395772 -0.000000
v -0.148247 0.395772 -0.027203
v -0.136332 0.395773 -0.050590
v -0.118044 0.395772 -0.068880
v -0.094657 0.395772 -0.080793
v -0.067454 0.395772 -0.085048
v -0.123158 0.358844 -0.000000
v -0.120365 0.358844 -0.017794
v -0.112551 0.358844 -0.033109
v -0.100563 0.358844 -0.045097
v -0.085248 0.358844 -0.052911
v -0.067454 0.358844 -0.055704
v -0.129623 0.326390 -0.000000
v -0.126500 0.326390 -0.019835
v -0.117767 0.326390 -0.036924
v -0.104378 0.326390 -0.050313
v -0.087289 0.326390 -0.059046
v -0.067454 0.326390 -0.062169
v -0.036738 0.456202 -0.091190
v -0.010341 0.456202 -0.077752
v 0.010298 0.456202 -0.057113
v 0.023736 0.456202 -0.030716
v 0.028537 0.456202 -0.000000
v -0.031807 0.430462 -0.105838
v -0.001171 0.430462 -0.090237
v 0.022783 0.430462 -0.066283
v 0.038382 0.430462 -0.035647
v 0.043955 0.430462 -0.000000
v -0.040251 0.395772 -0.080793
v -0.016864 0.395773 -0.068880
v 0.001425 0.395772 -0.050590
v 0.013339 0.395772 -0.027203
v 0.017594 0.395772 -0.000000
v -0.049660 0.358844 -0.052911
v -0.034345 0.358844 -0.045097
v -0.022357 0.358844 -0.033109
v -0.014543 0.358844 -0.017794
v -0.011750 0.358844 -0.000000
v -0.047619 0.326390 -0.059046
v -0.030530 0.326390 -0.050313
v -0.017141 0.326390 -0.036924
v -0.008408 0.326390 -0.019835
v -0.005284 0.326390 -0.000000
v -0.067454 0.456202 0.095991
v -0.036738 0.456202 0.091190
v -0.010341 0.456202 0.077752
v 0.010298 0.456202 0.057113
v 0.023736 0.456202 0.030716
v -0.067454 0.430462 0.111408
v -0.031807 0.430462 0.105836
v -0.001171 0.430462 0.090237
v 0.022783 0.430462 0.066283
v 0.038382 0.430462 0.035647
v -0.067454 0.395772 0.085048
v -0.040251 0.395772 0.080792
v -0.016864 0.395773 0.068879
v 0.001425 0.395772 0.050590
v 0.013339 0.395772 0.027203
v -0.067454 0.358844 0.055704
v -0.049660 0.358844 0.052911
v -0.034345 0.358844 0.045097
v -0.022357 0.358844 0.033109
v -0.014543 0.358844 0.017794
v -0.067454 0.326390 0.062169
v -0.047619 0.326390 0.059046
v -0.030530 0.326390 0.050313
v -0.017141 0.326390 0.036924
v -0.008408 0.326390 0.019835
v -0.158644 0.456202 0.030716
v -0.145205 0.456202 0.057113
v -0.124567 0.456202 0.077752
v -0.098170 0.456202 0.091190
v -0.173290 0.430462 0.035647
v -0.157691 0.430462 0.066283
v -0.133737 0.430462 0.090237
v -0.103100 0.430462 0.105836
v -0.148247 0.395772 0.027203
v -0.136332 0.395773 0.050590
v -0.118044 0.395772 0.068879
v -0.094657 0.395772 0.080792
v -0.120365 0.358844 0.017794
v -0.112551 0.358844 0.033109
v -0.100563 0.358844 0.045097
v -0.085248 0.358844 0.052911
v -0.126500 0.326390 0.019835
v -0.117767 0.326390 0.036924
v -0.104378 0.326390 0.050313
v -0.087289 0.326390 0.059046
v -0.189058 0.303264 -0.000000
v -0.182948 0.303264 -0.038796
v -0.165866 0.303264 -0.072222
v -0.139676 0.303264 -0.098412
v -0.106250 0.303264 -0.115494
v -0.067454 0.303264 -0.121604
v -0.276841 0.286851 -0.000000
v -0.266322 0.286851 -0.066803
v -0.236906 0.286851 -0.124360
v -0.191813 0.286851 -0.169454
v -0.134256 0.286851 -0.198868
v -0.067454 0.286851 -0.209387
v -0.369101 0.272676 -0.000000
v -0.353947 0.272676 -0.096238
v -0.311571 0.272677 -0.179155
v -0.246609 0.272676 -0.244117
v -0.163692 0.272676 -0.286493
v -0.067454 0.272676 -0.301647
v -0.441964 0.256264 -0.000000
v -0.423149 0.256264 -0.119483
v -0.370538 0.256264 -0.222429
v -0.289882 0.256264 -0.303084
v -0.186937 0.256264 -0.355695
v -0.067454 0.256264 -0.374510
v -0.471557 0.233136 -0.000000
v -0.451255 0.233136 -0.128926
v -0.394487 0.233136 -0.240005
v -0.307459 0.233136 -0.327033
v -0.196379 0.233136 -0.383801
v -0.067454 0.233136 -0.404103
v -0.028658 0.303264 -0.115494
v 0.004768 0.303264 -0.098412
v 0.030958 0.303264 -0.072222
v 0.048040 0.303264 -0.038796
v 0.054150 0.303264 -0.000000
v -0.000651 0.286851 -0.198868
v 0.056905 0.286851 -0.169454
v 0.101999 0.286851 -0.124359
v 0.131414 0.286851 -0.066803
v 0.141933 0.286851 -0.000000
v 0.028784 0.272676 -0.286493
v 0.111701 0.272677 -0.244117
v 0.176664 0.272676 -0.179155
v 0.219039 0.272676 -0.096238
v 0.234193 0.272676 -0.000000
v 0.052029 0.256264 -0.355695
v 0.154975 0.256264 -0.303084
v 0.235630 0.256264 -0.222429
v 0.288241 0.256264 -0.119483
v 0.307056 0.256264 -0.000000
v 0.061472 0.233136 -0.383801
v 0.172551 0.233136 -0.327033
v 0.259579 0.233136 -0.240005
v 0.316347 0.233136 -0.128926
v 0.336649 0.233136 -0.000000
v -0.067454 0.303264 0.121604
v -0.028658 0.303264 0.115494
v 0.004768 0.303264 0.098412
v 0.030958 0.303264 0.072222
v 0.048040 0.303264 0.038796
v -0.067454 0.286851 0.209387
v -0.000651 0.286851 0.198868
v 0.056905 0.286851 0.169452
v 0.101999 0.286851 0.124359
v 0.131414 0.286851 0.066803
v -0.067454 0.272676 0.301647
v 0.028784 0.272676 0.286493
v 0.111701 0.272677 0.244117
v 0.176664 0.272676 0.179154
v 0.219039 0.272676 0.096238
v -0.067454 0.256264 0.374510
v 0.052029 0.256264 0.355695
v 0.154975 0.256264 0.303084
v 0.235630 0.256264 0.222429
v 0.288241 0.256264 0.119483
v -0.067454 0.233136 0.404103
v 0.061472 0.233136 0.383801
v 0.172551 0.233136 0.327033
v 0.259579 0.233136 0.240005
v 0.316347 0.233136 0.128926
v -0.182948 0.303264 0.038796
v -0.165866 0.303264 0.072222
v -0.139676 0.303264 0.098412
v -0.106250 0.303264 0.115494
v -0.266322 0.286851 0.066803
v -0.236906 0.286851 0.124359
v -0.191813 0.286851 0.169452
v -0.134256 0.286851 0.198868
v -0.353947 0.272676 0.096238
v -0.311571 0.272677 0.179155
v -0.246609 0.272676 0.244117
v -0.163692 0.272676 0.286493
v -0.423149 0.256264 0.119483
v -0.370538 0.256264 0.222429
v -0.289882 0.256264 0.303084
v -0.186937 0.256264 0.355695
v -0.451255 0.233136 0.128926
v -0.394487 0.233136 0.240005
v -0.307459 0.233136 0.327033
v -0.196379 0.233136 0.383801
v -0.502641 0.233136 -0.000000
v -0.480778 0.233136 -0.138842
v -0.419643 0.233136 -0.258467
v -0.325921 0.233136 -0.352189
v -0.206296 0.233136 -0.413324
v -0.067454 0.233136 -0.435188
v -0.496550 0.252719 -0.000000
v -0.474992 0.252719 -0.136899
v -0.414712 0.252719 -0.254849
v -0.322303 0.252719 -0.347259
v -0.204353 0.252719 -0.407538
v -0.067454 0.252719 -0.429096
v -0.499596 0.262512 -0.000000
v -0.477886 0.262512 -0.137870
v -0.417177 0.262512 -0.256658
v -0.324112 0.262512 -0.349724
v -0.205324 0.262512 -0.410430
v -0.067454 0.262512 -0.432142
v -0.508796 0.262512 -0.000000
v -0.486623 0.262512 -0.140805
v -0.424624 0.262512 -0.262122
v -0.329576 0.262512 -0.357170
v -0.208259 0.262512 -0.419171
v -0.067454 0.262512 -0.441342
v -0.521169 0.252719 -0.000000
v -0.498373 0.252719 -0.144753
v -0.434636 0.252719 -0.269470
v -0.336924 0.252719 -0.367182
v -0.212207 0.252719 -0.430919
v -0.067454 0.252719 -0.453715
v -0.533726 0.233136 -0.000000
v -0.510301 0.233136 -0.148759
v -0.444800 0.233136 -0.276930
v -0.344382 0.233136 -0.377346
v -0.216213 0.233136 -0.442848
v -0.067454 0.233136 -0.466272
v 0.071388 0.233136 -0.413324
v 0.191013 0.233136 -0.352189
v 0.284735 0.233136 -0.258467
v 0.345870 0.233136 -0.138842
v 0.367734 0.233136 -0.000000
v 0.069445 0.252719 -0.407538
v 0.187395 0.252719 -0.347259
v 0.279805 0.252719 -0.254849
v 0.340084 0.252719 -0.136899
v 0.361642 0.252719 -0.000000
v 0.070416 0.262512 -0.410432
v 0.189204 0.262512 -0.349724
v 0.282269 0.262512 -0.256658
v 0.342976 0.262512 -0.137870
v 0.364689 0.262512 -0.000000
v 0.073352 0.262512 -0.419171
v 0.194669 0.262512 -0.357170
v 0.289717 0.262512 -0.262122
v 0.351715 0.262512 -0.140805
v 0.373888 0.262512 -0.000000
v 0.077299 0.252719 -0.430919
v 0.202017 0.252719 -0.367182
v 0.299728 0.252719 -0.269470
v 0.363466 0.252719 -0.144753
v 0.386261 0.252719 -0.000000
v 0.081305 0.233136 -0.442848
v 0.209476 0.233136 -0.377346
v 0.309892 0.233136 -0.276930
v 0.375394 0.233136 -0.148759
v 0.398818 0.233136 -0.000000
v -0.067454 0.233136 0.435188
v 0.071388 0.233136 0.413324
v 0.191013 0.233136 0.352189
v 0.284735 0.233136 0.258467
v 0.345870 0.233136 0.138842
v -0.067454 0.252719 0.429096
v 0.069445 0.252719 0.407538
v 0.187395 0.252719 0.347259
v 0.279805 0.252719 0.254849
v 0.340084 0.252719 0.136899
v -0.067454 0.262512 0.432142
v 0.070416 0.262512 0.410430
v 0.189204 0.262512 0.349723
v 0.282269 0.262512 0.256658
v 0.342976 0.262512 0.137870
v -0.067454 0.262512 0.441342
v 0.073352 0.262512 0.419169
v 0.194669 0.262512 0.357170
v 0.289717 0.262512 0.262122
v 0.351715 0.262512 0.140805
v -0.067454 0.252719 0.453715
v 0.077299 0.252719 0.430919
v 0.202017 0.252719 0.367182
v 0.299728 0.252719 0.269470
v 0.363466 0.252719 0.144753
v -0.067454 0.233136 0.466272
v 0.081305 0.233136 0.442848
v 0.209476 0.233136 0.377346
v 0.309892 0.233136 0.276928
v 0.375394 0.233136 0.148759
v -0.480778 0.233136 0.138842
v -0.419643 0.233136 0.258467
v -0.325921 0.233136 0.352189
v -0.206296 0.233136 0.413324
v -0.474992 0.252719 0.136899
v -0.414712 0.252719 0.254849
v -0.322303 0.252719 0.347259
v -0.204353 0.252719 0.407538
v -0.477886 0.262512 0.137870
v -0.417177 0.262512 0.256658
v -0.324112 0.262512 0.349723
v -0.205324 0.262512 0.410430
v -0.486623 0.262512 0.140805
v -0.424624 0.262512 0.262122
v -0.329576 0.262512 0.357170
v -0.208259 0.262512 0.419169
v -0.498373 0.252719 0.144753
v -0.434636 0.252719 0.269470
v -0.336924 0.252719 0.367182
v -0.212207 0.252719 0.430919
v -0.510301 0.233136 0.148759
v -0.444800 0.233136 0.276928
v -0.344382 0.233136 0.377346
v -0.216213 0.233136 0.442848
v -0.579733 0.135405 -0.000000
v -0.553996 0.135405 -0.163437
v -0.482031 0.135405 -0.304252
v -0.371706 0.135405 -0.414577
v -0.230891 0.135405 -0.486542
v -0.067454 0.135405 -0.512279
v -0.622009 0.038794 -0.000000
v -0.594146 0.038794 -0.176925
v -0.516244 0.038794 -0.329361
v -0.396814 0.038794 -0.448790
v -0.244379 0.038794 -0.526693
v -0.067454 0.038794 -0.554555
v -0.656824 -0.055581 -0.000000
v -0.627213 -0.055581 -0.188032
v -0.544418 -0.055581 -0.350038
v -0.417492 -0.055581 -0.476964
v -0.255485 -0.055581 -0.559759
v -0.067454 -0.055581 -0.589370
v -0.680448 -0.146596 -0.000000
v -0.649650 -0.146596 -0.195569
v -0.563538 -0.146596 -0.364069
v -0.431523 -0.146596 -0.496084
v -0.263023 -0.146596 -0.582196
v -0.067454 -0.146596 -0.612994
v -0.689151 -0.233136 -0.000000
v -0.657917 -0.233136 -0.198347
v -0.570581 -0.233136 -0.369238
v -0.436692 -0.233136 -0.503127
v -0.265801 -0.233136 -0.590463
v -0.067454 -0.233136 -0.621697
v 0.095983 0.135405 -0.486542
v 0.236799 0.135405 -0.414577
v 0.347123 0.135405 -0.304252
v 0.419088 0.135405 -0.163437
v 0.444825 0.135405 -0.000000
v 0.109471 0.038794 -0.526693
v 0.261908 0.038794 -0.448790
v 0.381336 0.038794 -0.329361
v 0.459239 0.038794 -0.176925
v 0.487101 0.038794 -0.000000
v 0.120578 -0.055581 -0.559759
v 0.282584 -0.055581 -0.476964
v 0.409510 -0.055581 -0.350038
v 0.492305 -0.055581 -0.188032
v 0.521916 -0.055581 -0.000000
v 0.128115 -0.146596 -0.582196
v 0.296615 -0.146596 -0.496084
v 0.428630 -0.146596 -0.364069
v 0.514742 -0.146596 -0.195569
v 0.545540 -0.146596 -0.000000
v 0.130893 -0.233136 -0.590463
v 0.301784 -0.233136 -0.503127
v 0.435673 -0.233136 -0.369238
v 0.523009 -0.233136 -0.198347
v 0.554243 -0.233136 -0.000000
v -0.067454 0.135405 0.512279
v 0.095983 0.135405 0.486542
v 0.236799 0.135405 0.414577
v 0.347123 0.135405 0.304252
v 0.419088 0.135405 0.163437
v -0.067454 0.038794 0.554555
v 0.109471 0.038794 0.526693
v 0.261908 0.038794 0.448790
v 0.381336 0.038794 0.329360
v 0.459239 0.038794 0.176925
v -0.067454 -0.055581 0.589370
v 0.120578 -0.055581 0.559759
v 0.282584 -0.055581 0.476964
v 0.409510 -0.055581 0.350038
v 0.492305 -0.055581 0.188032
v -0.067454 -0.146596 0.612994
v 0.128115 -0.146596 0.582196
v 0.296615 -0.146596 0.496084
v 0.428630 -0.146596 0.364069
v 0.514742 -0.146596 0.195569
v -0.067454 -0.233136 0.621697
v 0.130893 -0.233136 0.590463
v 0.301784 -0.233136 0.503127
v 0.435673 -0.233136 0.369238
v 0.523009 -0.233136 0.198347
v -0.553996 0.135405 0.163437
v -0.482031 0.135405 0.304252
v -0.371706 0.135405 0.414577
v -0.230891 0.135405 0.486542
v -0.594146 0.038794 0.176925
v -0.516244 0.038794 0.329361
v -0.396814 0.038794 0.448790
v -0.244379 0.038794 0.526693
v -0.627213 -0.055581 0.188032
v -0.544418 -0.055581 0.350038
v -0.417492 -0.055581 0.476964
v -0.255485 -0.055581 0.559759
v -0.649650 -0.146596 0.195569
v -0.563538 -0.146596 0.364069
v -0.431523 -0.146596 0.496084
v -0.263023 -0.146596 0.582196
v -0.657917 -0.233136 0.198347
v -0.570581 -0.233136 0.369238
v -0.436692 -0.233136 0.503127
v -0.265801 -0.233136 0.590463
v -0.672987 -0.308860 -0.000000
v -0.642566 -0.308860 -0.193189
v -0.557499 -0.308860 -0.359638
v -0.427092 -0.308860 -0.490045
v -0.260643 -0.308860 -0.575112
v -0.067454 -0.308860 -0.605533
v -0.634441 -0.368915 -0.000000
v -0.605957 -0.368915 -0.180893
v -0.526307 -0.368915 -0.336746
v -0.404200 -0.368915 -0.458853
v -0.248347 -0.368915 -0.538503
v -0.067454 -0.368915 -0.566987
v -0.588436 -0.414424 -0.000000
v -0.562262 -0.414424 -0.166215
v -0.489074 -0.414424 -0.309422
v -0.376875 -0.414424 -0.421620
v -0.233669 -0.414424 -0.494808
v -0.067454 -0.414424 -0.520982
v -0.549891 -0.446502 -0.000000
v -0.525653 -0.446502 -0.153917
v -0.457881 -0.446502 -0.286530
v -0.353983 -0.446502 -0.390427
v -0.221371 -0.446502 -0.458199
v -0.067454 -0.446502 -0.482437
v -0.533726 -0.466273 0.000000
v -0.510301 -0.466273 -0.148759
v -0.444800 -0.466273 -0.276930
v -0.344382 -0.466273 -0.377346
v -0.216213 -0.466273 -0.442848
v -0.067454 -0.466273 -0.466272
v 0.125735 -0.308860 -0.575112
v 0.292184 -0.308860 -0.490045
v 0.422592 -0.308860 -0.359638
v 0.507658 -0.308860 -0.193189
v 0.538079 -0.308860 -0.000000
v 0.113439 -0.368915 -0.538503
v 0.269292 -0.368915 -0.458853
v 0.391399 -0.368915 -0.336746
v 0.471049 -0.368915 -0.180893
v 0.499533 -0.368915 -0.000000
v 0.098761 -0.414424 -0.494808
v 0.241968 -0.414424 -0.421620
v 0.354166 -0.414424 -0.309422
v 0.427354 -0.414424 -0.166215
v 0.453529 -0.414424 -0.000000
v 0.086463 -0.446502 -0.458199
v 0.219076 -0.446502 -0.390427
v 0.322973 -0.446502 -0.286530
v 0.390745 -0.446502 -0.153917
v 0.414983 -0.446502 -0.000000
v 0.081305 -0.466273 -0.442848
v 0.209476 -0.466273 -0.377346
v 0.309892 -0.466273 -0.276928
v 0.375394 -0.466273 -0.148759
v 0.398818 -0.466273 0.000000
v -0.067454 -0.308860 0.605533
v 0.125735 -0.308860 0.575112
v 0.292184 -0.308860 0.490045
v 0.422592 -0.308860 0.359638
v 0.507658 -0.308860 0.193189
v -0.067454 -0.368915 0.566987
v 0.113439 -0.368915 0.538503
v 0.269292 -0.368915 0.458853
v 0.391399 -0.368915 0.336746
v 0.471049 -0.368915 0.180891
v -0.067454 -0.414424 0.520982
v 0.098761 -0.414424 0.494808
v 0.241968 -0.414424 0.421620
v 0.354166 -0.414424 0.309422
v 0.427354 -0.414424 0.166215
v -0.067454 -0.446502 0.482437
v 0.086463 -0.446502 0.458199
v 0.219076 -0.446502 0.390427
v 0.322973 -0.446502 0.286530
v 0.390745 -0.446502 0.153917
v -0.067454 -0.466273 0.466272
v 0.081305 -0.466273 0.442848
v 0.209476 -0.466273 0.377346
v 0.309892 -0.466273 0.276928
v 0.375394 -0.466273 0.148759
v -0.642566 -0.308860 0.193189
v -0.557499 -0.308860 0.359638
v -0.427092 -0.308860 0.490045
v -0.260643 -0.308860 0.575112
v -0.605957 -0.368915 0.180891
v -0.526307 -0.368915 0.336746
v -0.404200 -0.368915 0.458853
v -0.248347 -0.368915 0.538503
v -0.562262 -0.414424 0.166215
v -0.489074 -0.414424 0.309422
v -0.376875 -0.414424 0.421620
v -0.233669 -0.414424 0.494808
v -0.525653 -0.446502 0.153917
v -0.457881 -0.446502 0.286530
v -0.353983 -0.446502 0.390427
v -0.221371 -0.446502 0.458199
v -0.510301 -0.466273 0.148759
v -0.444800 -0.466273 0.276930
v -0.344382 -0.466273 0.377346
v -0.216213 -0.466273 0.442848
vn -0.0000 0.8824 -0.4706
vn -0.0258 0.8825 -0.4695
vn -0.0300 0.9996 -0.0000
vn -0.0000 1.0000 -0.0000
vn -0.0000 0.3846 -0.9231
vn -0.0106 0.3856 -0.9226
vn -0.0000 -0.3846 -0.9231
vn 0.0095 -0.3857 -0.9226
vn -0.0000 -0.8824 -0.4706
vn 0.0195 -0.8829 -0.4691
vn -0.0000 -1.0000 -0.0000
vn 0.0209 -0.9998 -0.0000
vn -0.1355 0.8695 -0.4751
vn -0.1580 0.9874 -0.0000
vn -0.0549 0.3781 -0.9241
vn 0.0496 -0.3810 -0.9233
vn 0.1010 -0.8776 -0.4687
vn 0.1075 -0.9942 -0.0000
vn -0.4033 0.7682 -0.4972
vn -0.4751 0.8799 -0.0000
vn -0.1595 0.3282 -0.9310
vn 0.1470 -0.3401 -0.9288
vn 0.3116 -0.8206 -0.4791
vn 0.3348 -0.9423 -0.0000
vn -0.7645 0.4104 -0.4971
vn -0.8869 0.4619 -0.0000
vn -0.3128 0.1824 -0.9322
vn 0.3033 -0.2004 -0.9316
vn 0.6942 -0.5260 -0.4913
vn 0.7761 -0.6306 -0.0000
vn -0.8824 -0.0000 -0.4706
vn -1.0000 -0.0000 -0.0000
vn -0.3846 -0.0000 -0.9231
vn 0.3846 -0.0000 -0.9231
vn 0.8824 -0.0000 -0.4706
vn 1.0000 -0.0000 -0.0000
vn -0.0259 0.8825 0.4695
vn -0.0000 0.8824 0.4706
vn -0.0106 0.3856 0.9226
vn -0.0000 0.3846 0.9231
vn 0.0096 -0.3857 0.9226
vn -0.0000 -0.3846 0.9231
vn 0.0195 -0.8829 0.4691
vn -0.0000 -0.8824 0.4706
vn -0.1355 0.8695 0.4751
vn -0.0549 0.3781 0.9241
vn 0.0495 -0.3810 0.9233
vn 0.1010 -0.8776 0.4687
vn -0.4033 0.7682 0.4972
vn -0.1595 0.3282 0.9310
vn 0.1470 -0.3401 0.9288
vn 0.3116 -0.8206 0.4791
vn -0.7645 0.4104 0.4971
vn -0.3128 0.1824 0.9322
vn 0.3033 -0.2004 0.9316
vn 0.6942 -0.5260 0.4913
vn -0.8824 -0.0000 0.4706
vn -0.3846 -0.0000 0.9231
vn 0.3846 -0.0000 0.9231
vn 0.8823 -0.0000 0.4706
vn -0.8522 -0.2073 -0.4803
vn -0.9711 -0.2386 -0.0000
vn -0.3664 -0.0867 -0.9264
vn 0.3679 0.0835 -0.9261
vn 0.8583 0.1862 -0.4781
vn 0.9782 0.2075 -0.0000
vn -0.7803 -0.3988 -0.4818
vn -0.8866 -0.4626 -0.0000
vn -0.3394 -0.1642 -0.9262
vn 0.3474 0.1553 -0.9248
vn 0.8156 0.3362 -0.4710
vn 0.9296 0.3685 -0.0000
vn -0.6859 -0.5622 -0.4621
vn -0.7660 -0.6428 -0.0000
vn -0.3143 -0.2421 -0.9179
vn 0.3295 0.2327 -0.9150
vn 0.7526 0.4876 -0.4425
vn 0.8493 0.5280 -0.0000
vn -0.5766 -0.6875 -0.4414
vn -0.6361 -0.7716 -0.0000
vn -0.2752 -0.3133 -0.9089
vn 0.2906 0.3101 -0.9052
vn 0.6419 0.6421 -0.4191
vn 0.7179 0.6962 -0.0000
vn -0.4568 -0.7613 -0.4601
vn -0.5145 -0.8575 -0.0000
vn -0.2027 -0.3379 -0.9191
vn 0.2027 0.3378 -0.9191
vn 0.4568 0.7613 -0.4602
vn 0.5145 0.8575 -0.0000
vn -0.8522 -0.2073 0.4803
vn -0.3664 -0.0867 0.9264
vn 0.3678 0.0835 0.9261
vn 0.8583 0.1862 0.4781
vn -0.7803 -0.3988 0.4818
vn -0.3394 -0.1642 0.9262
vn 0.3474 0.1553 0.9248
vn 0.8155 0.3362 0.4710
vn -0.6859 -0.5622 0.4621
vn -0.3143 -0.2421 0.9179
vn 0.3295 0.2327 0.9150
vn 0.7526 0.4876 0.4425
vn -0.5766 -0.6875 0.4414
vn -0.2752 -0.3133 0.9089
vn 0.2906 0.3101 0.9052
vn 0.6419 0.6421 0.4191
vn -0.4568 -0.7613 0.4601
vn -0.2028 -0.3379 0.9191
vn 0.2027 0.3379 0.9191
vn 0.4568 0.7613 0.4602
vn 0.4862 -0.5343 0.6915
vn 0.5214 -0.1552 0.8391
vn 0.9062 -0.4229 -0.0000
vn 0.7071 -0.7071 -0.0000
vn 0.1514 -0.1967 0.9687
vn 0.1248 0.1838 0.9750
vn -0.1504 0.2241 0.9629
vn -0.1388 0.4927 0.8591
vn -0.4209 0.6815 0.5987
vn -0.3478 0.7864 0.5106
vn -0.5145 0.8575 -0.0000
vn -0.4285 0.9035 -0.0000
vn 0.2757 0.8081 0.5205
vn 0.5812 0.8138 -0.0000
vn 0.0275 0.8528 0.5216
vn -0.1016 0.9043 0.4147
vn -0.1948 0.9506 0.2417
vn -0.2374 0.9714 -0.0000
vn -0.2188 0.9341 -0.2821
vn -0.2821 0.9594 -0.0000
vn -0.1037 0.8704 -0.4814
vn 0.0649 0.7451 -0.6638
vn 0.4863 0.3913 -0.7813
vn 0.9887 -0.1498 -0.0000
vn -0.3991 0.7363 -0.5464
vn -0.5462 0.8376 -0.0000
vn -0.1441 0.4997 -0.8541
vn 0.1510 0.0945 -0.9840
vn 0.4924 -0.5357 -0.6860
vn 0.5977 -0.8017 -0.0000
vn -0.5096 0.5612 -0.6522
vn -0.7071 0.7071 -0.0000
vn -0.1668 0.2209 -0.9609
vn 0.1653 -0.2574 -0.9521
vn 0.4212 -0.7294 -0.5391
vn 0.4857 -0.8741 -0.0000
vn 0.5214 -0.1552 -0.8391
vn 0.4862 -0.5343 -0.6915
vn 0.1248 0.1838 -0.9750
vn 0.1514 -0.1967 -0.9687
vn -0.1388 0.4927 -0.8591
vn -0.1504 0.2241 -0.9629
vn -0.3477 0.7864 -0.5106
vn -0.4209 0.6815 -0.5987
vn 0.2757 0.8081 -0.5205
vn 0.0275 0.8528 -0.5216
vn -0.1016 0.9043 -0.4147
vn -0.1949 0.9506 -0.2417
vn -0.2188 0.9341 0.2821
vn -0.1037 0.8704 0.4814
vn 0.0649 0.7451 0.6638
vn 0.4863 0.3913 0.7813
vn -0.3991 0.7363 0.5464
vn -0.1441 0.4997 0.8541
vn 0.1510 0.0945 0.9840
vn 0.4924 -0.5357 0.6860
vn -0.5096 0.5612 0.6522
vn -0.1668 0.2208 0.9609
vn 0.1653 -0.2574 0.9521
vn 0.4212 -0.7294 0.5391
vn -0.7258 0.3406 -0.5976
vn -0.9408 0.3390 -0.0001
vn -0.2212 0.2300 -0.9477
vn 0.2930 -0.0100 -0.9561
vn 0.7399 -0.3049 -0.5997
vn 0.9003 -0.4353 -0.0000
vn -0.8302 0.2762 -0.4843
vn -0.9701 0.2425 -0.0000
vn -0.2306 0.2382 -0.9434
vn 0.4910 0.0365 -0.8704
vn 0.8830 -0.1458 -0.4462
vn 0.9781 -0.2082 -0.0000
vn -0.7530 0.4336 -0.4950
vn -0.8973 0.4414 -0.0000
vn -0.1486 0.2657 -0.9525
vn 0.5394 -0.0456 -0.8408
vn 0.8747 -0.2506 -0.4148
vn 0.9506 -0.3103 -0.0000
vn -0.3944 0.6963 -0.5997
vn -0.5225 0.8526 -0.0000
vn -0.0535 0.2686 -0.9618
vn 0.3173 -0.1968 -0.9277
vn 0.6157 -0.5706 -0.5435
vn 0.7149 -0.6992 -0.0000
vn -0.0245 0.7472 -0.6641
vn -0.0238 0.2425 -0.9699
vn 0.0385 -0.2424 -0.9694
vn 0.1474 -0.7393 -0.6571
vn 0.2095 -0.9778 -0.0000
vn -0.7258 0.3406 0.5976
vn -0.2212 0.2300 0.9477
vn 0.2930 -0.0100 0.9561
vn 0.7399 -0.3049 0.5996
vn -0.8302 0.2762 0.4843
vn -0.2306 0.2382 0.9434
vn 0.4910 0.0365 0.8704
vn 0.8830 -0.1458 0.4462
vn -0.7530 0.4336 0.4950
vn -0.1486 0.2657 0.9525
vn 0.5394 -0.0456 0.8408
vn 0.8747 -0.2506 0.4148
vn -0.3944 0.6963 0.5997
vn -0.0535 0.2686 0.9618
vn 0.3173 -0.1968 0.9277
vn 0.6157 -0.5706 0.5435
vn -0.0245 0.7472 0.6641
vn -0.0238 0.2425 0.9699
vn 0.0385 -0.2424 0.9694
vn 0.1474 -0.7393 0.6571
vn -0.4348 0.8894 -0.1413
vn -0.4580 0.8890 -0.0000
vn -0.3689 0.8899 -0.2683
vn -0.2683 0.8899 -0.3689
vn -0.1413 0.8894 -0.4348
vn -0.0000 0.8890 -0.4580
vn -0.9143 -0.2753 -0.2972
vn -0.9615 -0.2747 -0.0001
vn -0.7773 -0.2761 -0.5653
vn -0.5653 -0.2761 -0.7773
vn -0.2972 -0.2753 -0.9143
vn -0.0000 -0.2747 -0.9615
vn -0.7795 -0.5728 -0.2535
vn -0.8204 -0.5718 -0.0000
vn -0.6622 -0.5739 -0.4817
vn -0.4817 -0.5739 -0.6622
vn -0.2535 -0.5728 -0.7795
vn -0.0000 -0.5718 -0.8204
vn -0.8899 -0.3521 -0.2901
vn -0.9363 -0.3511 -0.0000
vn -0.7563 -0.3531 -0.5507
vn -0.5507 -0.3532 -0.7563
vn -0.2901 -0.3521 -0.8899
vn -0.0000 -0.3511 -0.9363
vn -0.6715 0.7077 -0.2195
vn -0.5704 0.7085 -0.4156
vn -0.4156 0.7085 -0.5704
vn -0.2195 0.7077 -0.6715
vn -0.0000 0.7071 -0.7071
vn 0.1413 0.8894 -0.4348
vn 0.2683 0.8899 -0.3689
vn 0.3690 0.8899 -0.2683
vn 0.4348 0.8894 -0.1413
vn 0.4580 0.8890 -0.0000
vn 0.2972 -0.2753 -0.9143
vn 0.5653 -0.2761 -0.7773
vn 0.7773 -0.2761 -0.5653
vn 0.9143 -0.2753 -0.2972
vn 0.9615 -0.2747 -0.0000
vn 0.2535 -0.5728 -0.7795
vn 0.4817 -0.5739 -0.6622
vn 0.6622 -0.5739 -0.4817
vn 0.7795 -0.5728 -0.2535
vn 0.8204 -0.5718 -0.0000
vn 0.2901 -0.3521 -0.8899
vn 0.5507 -0.3532 -0.7563
vn 0.7564 -0.3532 -0.5507
vn 0.8899 -0.3521 -0.2901
vn 0.9363 -0.3511 -0.0000
vn 0.2195 0.7077 -0.6715
vn 0.4156 0.7085 -0.5704
vn 0.5704 0.7085 -0.4156
vn 0.6715 0.7077 -0.2195
vn 0.7071 0.7071 -0.0000
vn -0.0000 0.8890 0.4580
vn 0.1413 0.8894 0.4348
vn 0.2673 0.8899 0.3697
vn 0.3697 0.8899 0.2673
vn 0.4348 0.8894 0.1413
vn -0.0000 -0.2747 0.9615
vn 0.2972 -0.2753 0.9143
vn 0.5653 -0.2761 0.7773
vn 0.7773 -0.2761 0.5653
vn 0.9143 -0.2753 0.2972
vn -0.0000 -0.5718 0.8204
vn 0.2535 -0.5728 0.7795
vn 0.4814 -0.5739 0.6624
vn 0.6624 -0.5739 0.4814
vn 0.7795 -0.5728 0.2535
vn -0.0000 -0.3511 0.9363
vn 0.2901 -0.3521 0.8899
vn 0.5507 -0.3532 0.7564
vn 0.7564 -0.3532 0.5507
vn 0.8899 -0.3521 0.2901
vn -0.0000 0.7071 0.7071
vn 0.2195 0.7077 0.6715
vn 0.4150 0.7085 0.5708
vn 0.5708 0.7085 0.4150
vn 0.6715 0.7077 0.2195
vn -0.4348 0.8894 0.1413
vn -0.3697 0.8899 0.2673
vn -0.2673 0.8899 0.3697
vn -0.1413 0.8894 0.4348
vn -0.9143 -0.2753 0.2972
vn -0.7773 -0.2761 0.5653
vn -0.5653 -0.2761 0.7773
vn -0.2972 -0.2753 0.9143
vn -0.7795 -0.5728 0.2535
vn -0.6624 -0.5739 0.4814
vn -0.4814 -0.5739 0.6624
vn -0.2535 -0.5728 0.7795
vn -0.8899 -0.3521 0.2901
vn -0.7564 -0.3531 0.5507
vn -0.5507 -0.3532 0.7564
vn -0.2901 -0.3521 0.8899
vn -0.6715 0.7077 0.2195
vn -0.5708 0.7085 0.4150
vn -0.4150 0.7085 0.5708
vn -0.2195 0.7077 0.6715
vn -0.2948 0.9507 -0.0964
vn -0.3107 0.9505 -0.0000
vn -0.2503 0.9508 -0.1824
vn -0.1824 0.9508 -0.2503
vn -0.0964 0.9507 -0.2948
vn -0.0000 0.9505 -0.3107
vn -0.1917 0.9794 -0.0627
vn -0.2021 0.9794 -0.0000
vn -0.1627 0.9795 -0.1186
vn -0.1186 0.9795 -0.1627
vn -0.0627 0.9794 -0.1918
vn -0.0000 0.9794 -0.2021
vn -0.2075 0.9759 -0.0678
vn -0.2187 0.9758 -0.0000
vn -0.1761 0.9760 -0.1283
vn -0.1283 0.9760 -0.1761
vn -0.0678 0.9759 -0.2075
vn -0.0000 0.9758 -0.2187
vn -0.3962 0.9090 -0.1295
vn -0.4175 0.9087 -0.0000
vn -0.3364 0.9093 -0.2451
vn -0.2451 0.9093 -0.3364
vn -0.1295 0.9090 -0.3962
vn -0.0000 0.9087 -0.4175
vn -0.9505 -0.0000 -0.3107
vn -1.0000 -0.0000 0.0001
vn -0.8082 -0.0000 -0.5889
vn -0.5889 -0.0000 -0.8082
vn -0.3108 -0.0000 -0.9505
vn -0.0001 -0.0000 -1.0000
vn 0.0964 0.9507 -0.2948
vn 0.1824 0.9508 -0.2503
vn 0.2503 0.9508 -0.1824
vn 0.2948 0.9507 -0.0964
vn 0.3107 0.9505 -0.0000
vn 0.0627 0.9794 -0.1917
vn 0.1186 0.9795 -0.1627
vn 0.1627 0.9795 -0.1186
vn 0.1918 0.9794 -0.0627
vn 0.2021 0.9794 -0.0000
vn 0.0678 0.9759 -0.2075
vn 0.1283 0.9760 -0.1761
vn 0.1761 0.9760 -0.1283
vn 0.2075 0.9759 -0.0678
vn 0.2187 0.9758 -0.0000
vn 0.1295 0.9090 -0.3962
vn 0.2451 0.9093 -0.3364
vn 0.3364 0.9093 -0.2451
vn 0.3962 0.9090 -0.1295
vn 0.4175 0.9087 -0.0000
vn 0.3107 -0.0000 -0.9505
vn 0.5889 -0.0000 -0.8082
vn 0.8082 -0.0000 -0.5889
vn 0.9505 -0.0000 -0.3108
vn 1.0000 -0.0000 -0.0001
vn -0.0000 0.9505 0.3107
vn 0.0964 0.9507 0.2948
vn 0.1824 0.9508 0.2503
vn 0.2503 0.9508 0.1824
vn 0.2948 0.9507 0.0964
vn -0.0000 0.9794 0.2021
vn 0.0627 0.9794 0.1918
vn 0.1186 0.9795 0.1627
vn 0.1627 0.9795 0.1186
vn 0.1918 0.9794 0.0627
vn -0.0000 0.9758 0.2187
vn 0.0678 0.9759 0.2075
vn 0.1283 0.9760 0.1761
vn 0.1761 0.9760 0.1283
vn 0.2075 0.9759 0.0678
vn -0.0000 0.9087 0.4175
vn 0.1295 0.9090 0.3962
vn 0.2451 0.9093 0.3364
vn 0.3364 0.9093 0.2451
vn 0.3962 0.9090 0.1295
vn 0.0001 -0.0000 1.0000
vn 0.3108 -0.0000 0.9505
vn 0.5889 -0.0000 0.8082
vn 0.8082 -0.0000 0.5889
vn 0.9505 -0.0000 0.3107
vn -0.2948 0.9507 0.0964
vn -0.2503 0.9508 0.1824
vn -0.1824 0.9508 0.2503
vn -0.0964 0.9507 0.2948
vn -0.1918 0.9794 0.0627
vn -0.1627 0.9795 0.1186
vn -0.1186 0.9795 0.1627
vn -0.0627 0.9794 0.1918
vn -0.2075 0.9759 0.0678
vn -0.1761 0.9760 0.1283
vn -0.1283 0.9760 0.1761
vn -0.0678 0.9759 0.2075
vn -0.3962 0.9090 0.1295
vn -0.3364 0.9093 0.2451
vn -0.2451 0.9093 0.3364
vn -0.1295 0.9090 0.3962
vn -0.9505 -0.0000 0.3108
vn -0.8082 -0.0000 0.5889
vn -0.5889 -0.0000 0.8082
vn -0.3107 -0.0000 0.9505
vn 0.8949 -0.3369 0.2926
vn 0.9492 -0.0524 0.3103
vn 0.9986 -0.0523 -0.0000
vn 0.9417 -0.3363 -0.0000
vn 0.7608 -0.3375 0.5544
vn 0.8071 -0.0525 0.5881
vn 0.5544 -0.3375 0.7608
vn 0.5881 -0.0525 0.8071
vn 0.2926 -0.3369 0.8949
vn 0.3103 -0.0524 0.9492
vn -0.0000 -0.3363 0.9417
vn -0.0000 -0.0523 0.9986
vn 0.6667 0.7128 0.2179
vn 0.7020 0.7121 -0.0000
vn 0.5663 0.7135 0.4126
vn 0.4127 0.7135 0.5663
vn 0.2179 0.7128 0.6667
vn -0.0000 0.7121 0.7020
vn -0.4753 0.8660 -0.1554
vn -0.5007 0.8656 -0.0000
vn -0.4035 0.8664 -0.2940
vn -0.2940 0.8664 -0.4035
vn -0.1554 0.8660 -0.4753
vn -0.0000 0.8656 -0.5007
vn -0.7921 0.5527 -0.2590
vn -0.8338 0.5520 -0.0000
vn -0.6731 0.5534 -0.4905
vn -0.4905 0.5534 -0.6731
vn -0.2590 0.5527 -0.7921
vn -0.0000 0.5520 -0.8338
vn -0.8949 0.3369 -0.2926
vn -0.9417 0.3364 -0.0000
vn -0.7608 0.3375 -0.5543
vn -0.5544 0.3375 -0.7608
vn -0.2926 0.3369 -0.8949
vn -0.0000 0.3364 -0.9417
vn -0.2926 -0.3369 0.8949
vn -0.3103 -0.0524 0.9492
vn -0.5544 -0.3375 0.7608
vn -0.5881 -0.0525 0.8071
vn -0.7608 -0.3375 0.5544
vn -0.8071 -0.0525 0.5881
vn -0.8949 -0.3369 0.2926
vn -0.9492 -0.0524 0.3103
vn -0.9417 -0.3363 -0.0000
vn -0.9986 -0.0523 -0.0000
vn -0.2179 0.7128 0.6667
vn -0.4127 0.7135 0.5663
vn -0.5663 0.7135 0.4127
vn -0.6667 0.7128 0.2179
vn -0.7020 0.7121 -0.0000
vn 0.1554 0.8660 -0.4752
vn 0.2940 0.8664 -0.4035
vn 0.4035 0.8664 -0.2940
vn 0.4753 0.8660 -0.1554
vn 0.5007 0.8656 -0.0000
vn 0.2590 0.5527 -0.7921
vn 0.4905 0.5534 -0.6731
vn 0.6731 0.5534 -0.4905
vn 0.7921 0.5527 -0.2590
vn 0.8338 0.5520 -0.0000
vn 0.2926 0.3369 -0.8949
vn 0.5543 0.3375 -0.7608
vn 0.7608 0.3375 -0.5544
vn 0.8949 0.3369 -0.2926
vn 0.9417 0.3364 -0.0000
vn -0.0000 -0.0523 -0.9986
vn -0.3103 -0.0524 -0.9492
vn -0.2926 -0.3369 -0.8949
vn -0.0000 -0.3363 -0.9417
vn -0.5881 -0.0525 -0.8071
vn -0.5544 -0.3375 -0.7608
vn -0.8071 -0.0525 -0.5881
vn -0.7608 -0.3375 -0.5544
vn -0.9492 -0.0524 -0.3103
vn -0.8949 -0.3369 -0.2926
vn -0.0000 0.7121 -0.7020
vn -0.2177 0.7128 -0.6667
vn -0.4125 0.7135 -0.5664
vn -0.5664 0.7135 -0.4125
vn -0.6667 0.7128 -0.2177
vn -0.0000 0.8656 0.5007
vn 0.1554 0.8660 0.4752
vn 0.2940 0.8664 0.4035
vn 0.4035 0.8664 0.2940
vn 0.4753 0.8660 0.1554
vn -0.0000 0.5520 0.8338
vn 0.2590 0.5527 0.7921
vn 0.4905 0.5534 0.6731
vn 0.6731 0.5534 0.4905
vn 0.7921 0.5527 0.2590
vn -0.0000 0.3364 0.9417
vn 0.2926 0.3369 0.8949
vn 0.5543 0.3375 0.7608
vn 0.7608 0.3375 0.5543
vn 0.8949 0.3369 0.2926
vn 0.9492 -0.0524 -0.3103
vn 0.8949 -0.3369 -0.2926
vn 0.8071 -0.0525 -0.5881
vn 0.7608 -0.3375 -0.5544
vn 0.5881 -0.0525 -0.8071
vn 0.5544 -0.3375 -0.7608
vn 0.3103 -0.0524 -0.9492
vn 0.2926 -0.3369 -0.8949
vn 0.6667 0.7128 -0.2177
vn 0.5664 0.7135 -0.4125
vn 0.4125 0.7135 -0.5664
vn 0.2177 0.7128 -0.6667
vn -0.4753 0.8660 0.1554
vn -0.4035 0.8664 0.2940
vn -0.2940 0.8664 0.4035
vn -0.1554 0.8660 0.4753
vn -0.7921 0.5527 0.2590
vn -0.6731 0.5534 0.4905
vn -0.4905 0.5534 0.6731
vn -0.2590 0.5527 0.7921
vn -0.8949 0.3369 0.2926
vn -0.7608 0.3375 0.5543
vn -0.5543 0.3375 0.7608
vn -0.2926 0.3369 0.8949
vn -0.8984 0.3266 -0.2937
vn -0.9454 0.3260 -0.0000
vn -0.7637 0.3271 -0.5565
vn -0.5565 0.3271 -0.7637
vn -0.2937 0.3266 -0.8984
vn -0.0000 0.3260 -0.9454
vn -0.9085 0.2940 -0.2970
vn -0.9560 0.2935 -0.0000
vn -0.7723 0.2945 -0.5628
vn -0.5628 0.2945 -0.7723
vn -0.2970 0.2940 -0.9085
vn -0.0000 0.2935 -0.9560
vn -0.9239 0.2347 -0.3021
vn -0.9722 0.2343 -0.0000
vn -0.7855 0.2351 -0.5724
vn -0.5724 0.2351 -0.7855
vn -0.3021 0.2347 -0.9239
vn -0.0000 0.2343 -0.9722
vn -0.9411 0.1404 -0.3077
vn -0.9901 0.1401 -0.0000
vn -0.8002 0.1407 -0.5831
vn -0.5831 0.1407 -0.8002
vn -0.3077 0.1404 -0.9411
vn -0.0000 0.1401 -0.9901
vn -0.3107 -0.0000 -0.9505
vn -0.0000 -0.0000 -1.0000
vn 0.2937 0.3266 -0.8984
vn 0.5565 0.3271 -0.7637
vn 0.7637 0.3271 -0.5565
vn 0.8984 0.3266 -0.2937
vn 0.9454 0.3260 -0.0000
vn 0.2970 0.2940 -0.9085
vn 0.5628 0.2945 -0.7723
vn 0.7723 0.2945 -0.5628
vn 0.9085 0.2940 -0.2970
vn 0.9559 0.2935 -0.0000
vn 0.3021 0.2347 -0.9239
vn 0.5724 0.2351 -0.7855
vn 0.7855 0.2351 -0.5724
vn 0.9239 0.2347 -0.3021
vn 0.9722 0.2343 -0.0000
vn 0.3077 0.1404 -0.9411
vn 0.5831 0.1407 -0.8002
vn 0.8002 0.1407 -0.5831
vn 0.9411 0.1404 -0.3077
vn 0.9901 0.1401 -0.0000
vn 0.9505 -0.0000 -0.3107
vn -0.0000 0.3260 0.9454
vn 0.2937 0.3266 0.8984
vn 0.5565 0.3271 0.7637
vn 0.7637 0.3271 0.5565
vn 0.8984 0.3266 0.2937
vn -0.0000 0.2935 0.9560
vn 0.2970 0.2940 0.9085
vn 0.5628 0.2945 0.7723
vn 0.7723 0.2945 0.5628
vn 0.9085 0.2940 0.2970
vn -0.0000 0.2343 0.9722
vn 0.3021 0.2347 0.9239
vn 0.5724 0.2351 0.7855
vn 0.7855 0.2351 0.5724
vn 0.9239 0.2347 0.3021
vn -0.0000 0.1401 0.9901
vn 0.3077 0.1404 0.9411
vn 0.5831 0.1407 0.8002
vn 0.8002 0.1407 0.5831
vn 0.9411 0.1404 0.3077
vn -0.0000 -0.0000 1.0000
vn 0.3107 -0.0000 0.9505
vn 0.5883 -0.0000 0.8086
vn 0.8086 -0.0000 0.5883
vn -0.8984 0.3266 0.2937
vn -0.7637 0.3271 0.5565
vn -0.5565 0.3271 0.7637
vn -0.2937 0.3266 0.8984
vn -0.9085 0.2940 0.2970
vn -0.7723 0.2945 0.5628
vn -0.5628 0.2945 0.7723
vn -0.2970 0.2940 0.9085
vn -0.9239 0.2347 0.3021
vn -0.7855 0.2351 0.5724
vn -0.5724 0.2351 0.7855
vn -0.3021 0.2347 0.9239
vn -0.9411 0.1404 0.3077
vn -0.8002 0.1407 0.5831
vn -0.5831 0.1407 0.8002
vn -0.3077 0.1404 0.9411
vn -0.9505 -0.0000 0.3107
vn -0.8086 -0.0000 0.5883
vn -0.5883 -0.0000 0.8086
vn -0.9023 -0.3144 -0.2950
vn -0.9495 -0.3139 -0.0000
vn -0.7671 -0.3150 -0.5589
vn -0.5589 -0.3150 -0.7671
vn -0.2950 -0.3144 -0.9023
vn -0.0000 -0.3139 -0.9495
vn -0.8008 -0.5388 -0.2618
vn -0.8429 -0.5380 -0.0000
vn -0.6805 -0.5395 -0.4958
vn -0.4959 -0.5395 -0.6805
vn -0.2618 -0.5388 -0.8007
vn -0.0000 -0.5380 -0.8429
vn -0.7166 -0.6569 -0.2343
vn -0.7546 -0.6562 -0.0000
vn -0.6089 -0.6576 -0.4437
vn -0.4437 -0.6576 -0.6088
vn -0.2343 -0.6569 -0.7166
vn -0.0000 -0.6562 -0.7546
vn -0.7167 -0.6569 -0.2343
vn -0.4437 -0.6576 -0.6089
vn -0.2343 -0.6569 -0.7167
vn -0.5890 -0.0000 -0.8082
vn -0.3107 0.0001 -0.9505
vn 0.2950 -0.3144 -0.9023
vn 0.5589 -0.3150 -0.7671
vn 0.7671 -0.3150 -0.5589
vn 0.9023 -0.3144 -0.2950
vn 0.9495 -0.3139 -0.0000
vn 0.2618 -0.5388 -0.8008
vn 0.4958 -0.5395 -0.6805
vn 0.6805 -0.5395 -0.4959
vn 0.8007 -0.5388 -0.2618
vn 0.8429 -0.5380 -0.0000
vn 0.2343 -0.6569 -0.7166
vn 0.4437 -0.6576 -0.6089
vn 0.6088 -0.6576 -0.4437
vn 0.7166 -0.6569 -0.2343
vn 0.7546 -0.6562 -0.0000
vn 0.2343 -0.6569 -0.7167
vn 0.6089 -0.6576 -0.4437
vn 0.7167 -0.6569 -0.2343
vn 0.8082 -0.0000 -0.5890
vn 0.9505 0.0001 -0.3107
vn -0.0000 -0.3139 0.9495
vn 0.2950 -0.3144 0.9023
vn 0.5584 -0.3150 0.7674
vn 0.7674 -0.3150 0.5584
vn 0.9023 -0.3144 0.2950
vn -0.0000 -0.5380 0.8429
vn 0.2610 -0.5388 0.8010
vn 0.4955 -0.5395 0.6807
vn 0.6807 -0.5395 0.4955
vn 0.8010 -0.5388 0.2610
vn -0.0000 -0.6562 0.7546
vn 0.2338 -0.6569 0.7168
vn 0.4434 -0.6576 0.6090
vn 0.6090 -0.6576 0.4434
vn 0.7168 -0.6569 0.2338
vn 0.2336 -0.6569 0.7169
vn 0.4433 -0.6576 0.6091
vn 0.6091 -0.6576 0.4433
vn 0.7169 -0.6569 0.2336
vn 0.5890 -0.0000 0.8082
vn 0.9505 0.0001 0.3107
vn -0.9023 -0.3144 0.2950
vn -0.7674 -0.3150 0.5584
vn -0.5584 -0.3150 0.7674
vn -0.2950 -0.3144 0.9023
vn -0.8010 -0.5388 0.2610
vn -0.6807 -0.5395 0.4955
vn -0.4955 -0.5395 0.6807
vn -0.2610 -0.5388 0.8010
vn -0.7168 -0.6569 0.2338
vn -0.6090 -0.6576 0.4434
vn -0.4434 -0.6576 0.6090
vn -0.2338 -0.6569 0.7168
vn -0.7169 -0.6569 0.2336
vn -0.6091 -0.6576 0.4433
vn -0.4433 -0.6576 0.6091
vn -0.2336 -0.6569 0.7169
vn -0.8082 -0.0000 0.5890
vn -0.3107 0.0001 0.9505
vt 0.148438 1.000000
vt 0.148438 0.934856
vt 0.125000 0.935143
vt 0.125000 1.000000
vt 0.171875 1.000000
vt 0.171875 0.934079
vt 0.195312 1.000000
vt 0.195312 0.932939
vt 0.218750 1.000000
vt 0.218750 0.931736
vt 0.242188 1.000000
vt 0.242188 0.931143
vt 0.148438 0.880589
vt 0.125000 0.881143
vt 0.171875 0.879092
vt 0.195312 0.876892
vt 0.218750 0.874573
vt 0.242188 0.873429
vt 0.148438 0.833894
vt 0.125000 0.834571
vt 0.171875 0.832065
vt 0.195312 0.829376
vt 0.218750 0.826541
vt 0.242188 0.825143
vt 0.148438 0.791466
vt 0.125000 0.792000
vt 0.171875 0.790025
vt 0.195312 0.787907
vt 0.218750 0.785673
vt 0.242188 0.784571
vt 0.148438 0.750000
vt 0.125000 0.750000
vt 0.171875 0.750000
vt 0.195312 0.750000
vt 0.218750 0.750000
vt 0.242188 0.750000
vt 0.101562 0.934856
vt 0.101562 1.000000
vt 0.078125 0.934079
vt 0.078125 1.000000
vt 0.054688 0.932939
vt 0.054688 1.000000
vt 0.031250 0.931736
vt 0.031250 1.000000
vt 0.007812 0.931143
vt 0.007812 1.000000
vt 0.101562 0.880589
vt 0.078125 0.879092
vt 0.054688 0.876892
vt 0.031250 0.874573
vt 0.007812 0.873429
vt 0.101562 0.833894
vt 0.078125 0.832065
vt 0.054688 0.829376
vt 0.031250 0.826541
vt 0.007812 0.825143
vt 0.101562 0.791466
vt 0.078125 0.790025
vt 0.054688 0.787907
vt 0.031250 0.785673
vt 0.007812 0.784571
vt 0.101562 0.750000
vt 0.078125 0.750000
vt 0.054688 0.750000
vt 0.031250 0.750000
vt 0.007812 0.750000
vt 0.148438 0.710326
vt 0.125000 0.709810
vt 0.171875 0.711711
vt 0.195312 0.713709
vt 0.218750 0.715753
vt 0.242188 0.716735
vt 0.148438 0.667872
vt 0.125000 0.667362
vt 0.171875 0.669228
vt 0.195312 0.671159
vt 0.218750 0.673111
vt 0.242188 0.674040
vt 0.148438 0.622004
vt 0.125000 0.621758
vt 0.171875 0.622640
vt 0.195312 0.623505
vt 0.218750 0.624341
vt 0.242188 0.624729
vt 0.148438 0.572091
vt 0.125000 0.572103
vt 0.171875 0.572035
vt 0.195312 0.571901
vt 0.218750 0.571715
vt 0.242188 0.571612
vt 0.148438 0.517500
vt 0.125000 0.517500
vt 0.171875 0.517500
vt 0.195312 0.517500
vt 0.218750 0.517500
vt 0.242188 0.517500
vt 0.101562 0.710326
vt 0.078125 0.711711
vt 0.054688 0.713709
vt 0.031250 0.715753
vt 0.007812 0.716735
vt 0.101562 0.667872
vt 0.078125 0.669228
vt 0.054688 0.671159
vt 0.031250 0.673111
vt 0.007812 0.674040
vt 0.101562 0.622004
vt 0.078125 0.622640
vt 0.054688 0.623505
vt 0.031250 0.624341
vt 0.007812 0.624729
vt 0.101562 0.572091
vt 0.078125 0.572035
vt 0.054688 0.571901
vt 0.031250 0.571715
vt 0.007812 0.571612
vt 0.101562 0.517500
vt 0.078125 0.517500
vt 0.054688 0.517500
vt 0.031250 0.517500
vt 0.007812 0.517500
vt 0.775000 1.000000
vt 0.775000 0.983774
vt 0.750000 0.984221
vt 0.750000 1.000000
vt 0.800000 1.000000
vt 0.800000 0.982859
vt 0.825000 1.000000
vt 0.825000 0.982170
vt 0.850000 1.000000
vt 0.850000 0.981878
vt 0.875000 1.000000
vt 0.875000 0.981781
vt 0.775000 0.969223
vt 0.750000 0.969611
vt 0.800000 0.968442
vt 0.825000 0.967820
vt 0.850000 0.967514
vt 0.875000 0.967411
vt 0.775000 0.955286
vt 0.750000 0.955389
vt 0.800000 0.955096
vt 0.825000 0.954884
vt 0.850000 0.954712
vt 0.875000 0.954652
vt 0.775000 0.940899
vt 0.750000 0.940779
vt 0.800000 0.941166
vt 0.825000 0.941299
vt 0.850000 0.941273
vt 0.875000 0.941261
vt 0.775000 0.925000
vt 0.750000 0.925000
vt 0.800000 0.925000
vt 0.825000 0.925000
vt 0.850000 0.925000
vt 0.875000 0.925000
vt 1.000000 0.984221
vt 0.975000 0.983774
vt 0.975000 1.000000
vt 1.000000 1.000000
vt 0.950000 0.982859
vt 0.950000 1.000000
vt 0.925000 0.982170
vt 0.925000 1.000000
vt 0.900000 0.981878
vt 0.900000 1.000000
vt 1.000000 0.969611
vt 0.975000 0.969223
vt 0.950000 0.968442
vt 0.925000 0.967820
vt 0.900000 0.967514
vt 1.000000 0.955389
vt 0.975000 0.955286
vt 0.950000 0.955096
vt 0.925000 0.954884
vt 0.900000 0.954712
vt 1.000000 0.940779
vt 0.975000 0.940899
vt 0.950000 0.941166
vt 0.925000 0.941299
vt 0.900000 0.941273
vt 1.000000 0.925000
vt 0.975000 0.925000
vt 0.950000 0.925000
vt 0.925000 0.925000
vt 0.900000 0.925000
vt 0.775000 0.859647
vt 0.750000 0.859872
vt 0.800000 0.858895
vt 0.825000 0.857962
vt 0.850000 0.857238
vt 0.875000 0.856946
vt 0.775000 0.781742
vt 0.750000 0.782603
vt 0.800000 0.780009
vt 0.825000 0.778386
vt 0.850000 0.777301
vt 0.875000 0.776903
vt 0.775000 0.695342
vt 0.750000 0.696726
vt 0.800000 0.693003
vt 0.825000 0.691157
vt 0.850000 0.690073
vt 0.875000 0.689715
vt 0.775000 0.604503
vt 0.750000 0.605774
vt 0.800000 0.602540
vt 0.825000 0.601160
vt 0.850000 0.600438
vt 0.875000 0.600226
vt 0.775000 0.513281
vt 0.750000 0.513281
vt 0.800000 0.513281
vt 0.825000 0.513281
vt 0.850000 0.513281
vt 0.875000 0.513281
vt 1.000000 0.859872
vt 0.975000 0.859647
vt 0.950000 0.858895
vt 0.925000 0.857962
vt 0.900000 0.857238
vt 1.000000 0.782603
vt 0.975000 0.781742
vt 0.950000 0.780009
vt 0.925000 0.778386
vt 0.900000 0.777301
vt 1.000000 0.696726
vt 0.975000 0.695342
vt 0.950000 0.693003
vt 0.925000 0.691157
vt 0.900000 0.690073
vt 1.000000 0.605774
vt 0.975000 0.604503
vt 0.950000 0.602540
vt 0.925000 0.601160
vt 0.900000 0.600438
vt 1.000000 0.513281
vt 0.975000 0.513281
vt 0.950000 0.513281
vt 0.925000 0.513281
vt 0.900000 0.513281
vt 0.375000 0.750000
vt 0.383898 0.695229
vt 0.375000 0.692430
vt 0.391931 0.703392
vt 0.398304 0.716138
vt 0.402385 0.732204
vt 0.403785 0.750000
vt 0.392589 0.641734
vt 0.375000 0.636190
vt 0.408465 0.657879
vt 0.421061 0.683070
vt 0.429133 0.714822
vt 0.431905 0.750000
vt 0.400452 0.593333
vt 0.375000 0.585298
vt 0.423421 0.616708
vt 0.441646 0.653157
vt 0.453333 0.699096
vt 0.457351 0.750000
vt 0.406867 0.553848
vt 0.375000 0.543771
vt 0.435620 0.583127
vt 0.458436 0.628760
vt 0.473076 0.686266
vt 0.478115 0.750000
vt 0.411213 0.527096
vt 0.375000 0.515625
vt 0.443881 0.560387
vt 0.469807 0.612238
vt 0.486452 0.677574
vt 0.492188 0.750000
vt 0.402385 0.767796
vt 0.398304 0.783862
vt 0.391931 0.796608
vt 0.383898 0.804771
vt 0.375000 0.807570
vt 0.429133 0.785178
vt 0.421061 0.816930
vt 0.408465 0.842121
vt 0.392589 0.858266
vt 0.375000 0.863810
vt 0.453333 0.800904
vt 0.441646 0.846843
vt 0.423421 0.883292
vt 0.400452 0.906667
vt 0.375000 0.914702
vt 0.473076 0.813734
vt 0.458436 0.871240
vt 0.435620 0.916873
vt 0.406867 0.946152
vt 0.375000 0.956229
vt 0.486452 0.822426
vt 0.469807 0.887762
vt 0.443881 0.939613
vt 0.411213 0.972904
vt 0.375000 0.984375
vt 0.346215 0.750000
vt 0.347615 0.767796
vt 0.351696 0.783862
vt 0.358069 0.796608
vt 0.366102 0.804771
vt 0.318095 0.750000
vt 0.320867 0.785178
vt 0.328939 0.816930
vt 0.341535 0.842121
vt 0.357411 0.858266
vt 0.292649 0.750000
vt 0.296667 0.800904
vt 0.308354 0.846843
vt 0.326579 0.883292
vt 0.349548 0.906667
vt 0.271885 0.750000
vt 0.276924 0.813734
vt 0.291564 0.871240
vt 0.314380 0.916873
vt 0.343133 0.946152
vt 0.257812 0.750000
vt 0.263548 0.822426
vt 0.280193 0.887762
vt 0.306119 0.939613
vt 0.338787 0.972904
vt 0.366102 0.695229
vt 0.358069 0.703392
vt 0.351696 0.716138
vt 0.347615 0.732204
vt 0.357411 0.641734
vt 0.341535 0.657879
vt 0.328939 0.683070
vt 0.320867 0.714822
vt 0.349548 0.593333
vt 0.326579 0.616708
vt 0.308354 0.653157
vt 0.296667 0.699096
vt 0.343133 0.553848
vt 0.314380 0.583127
vt 0.291564 0.628760
vt 0.276924 0.686266
vt 0.338787 0.527096
vt 0.306119 0.560387
vt 0.280193 0.612238
vt 0.263548 0.677574
vt 0.630571 0.715707
vt 0.635739 0.683900
vt 0.625000 0.680494
vt 0.625000 0.713942
vt 0.635597 0.720829
vt 0.645425 0.693775
vt 0.639586 0.728806
vt 0.653113 0.709150
vt 0.642147 0.738858
vt 0.658050 0.728523
vt 0.643029 0.750000
vt 0.659753 0.750000
vt 0.642789 0.640503
vt 0.625000 0.634872
vt 0.658837 0.656854
vt 0.671573 0.682325
vt 0.679748 0.714422
vt 0.682564 0.750000
vt 0.650320 0.594150
vt 0.625000 0.586141
vt 0.673164 0.617416
vt 0.691292 0.653672
vt 0.702925 0.699361
vt 0.706929 0.750000
vt 0.656928 0.553470
vt 0.625000 0.543370
vt 0.685735 0.582810
vt 0.708595 0.628529
vt 0.723265 0.686144
vt 0.728315 0.750000
vt 0.661213 0.527096
vt 0.625000 0.515625
vt 0.693881 0.560387
vt 0.719807 0.612238
vt 0.736452 0.677574
vt 0.742188 0.750000
vt 0.642147 0.761142
vt 0.658050 0.771477
vt 0.639586 0.771194
vt 0.653113 0.790850
vt 0.635597 0.779171
vt 0.645425 0.806225
vt 0.630571 0.784293
vt 0.635739 0.816100
vt 0.625000 0.786058
vt 0.625000 0.819506
vt 0.679748 0.785578
vt 0.671573 0.817675
vt 0.658837 0.843146
vt 0.642789 0.859497
vt 0.625000 0.865128
vt 0.702925 0.800639
vt 0.691292 0.846328
vt 0.673164 0.882584
vt 0.650320 0.905850
vt 0.625000 0.913859
vt 0.723265 0.813856
vt 0.708595 0.871471
vt 0.685735 0.917190
vt 0.656928 0.946530
vt 0.625000 0.956630
vt 0.736452 0.822426
vt 0.719807 0.887762
vt 0.693881 0.939613
vt 0.661213 0.972904
vt 0.625000 0.984375
vt 0.590247 0.750000
vt 0.591950 0.771477
vt 0.607853 0.761142
vt 0.606971 0.750000
vt 0.596887 0.790850
vt 0.610414 0.771194
vt 0.604575 0.806225
vt 0.614403 0.779171
vt 0.614261 0.816100
vt 0.619429 0.784293
vt 0.567436 0.750000
vt 0.570252 0.785578
vt 0.578427 0.817675
vt 0.591163 0.843146
vt 0.607211 0.859497
vt 0.543071 0.750000
vt 0.547075 0.800639
vt 0.558708 0.846328
vt 0.576836 0.882584
vt 0.599680 0.905850
vt 0.521685 0.750000
vt 0.526735 0.813856
vt 0.541405 0.871471
vt 0.564265 0.917190
vt 0.593072 0.946530
vt 0.507812 0.750000
vt 0.513548 0.822426
vt 0.530193 0.887762
vt 0.556119 0.939613
vt 0.588787 0.972904
vt 0.614261 0.683900
vt 0.619429 0.715707
vt 0.604575 0.693775
vt 0.614403 0.720829
vt 0.596887 0.709150
vt 0.610414 0.728806
vt 0.591950 0.728523
vt 0.607853 0.738858
vt 0.607211 0.640503
vt 0.591163 0.656854
vt 0.578427 0.682325
vt 0.570252 0.714422
vt 0.599680 0.594150
vt 0.576836 0.617416
vt 0.558708 0.653672
vt 0.547075 0.699361
vt 0.593072 0.553470
vt 0.564265 0.582810
vt 0.541405 0.628529
vt 0.526735 0.686144
vt 0.588787 0.527096
vt 0.556119 0.560387
vt 0.530193 0.612238
vt 0.513548 0.677574
vt 0.050000 0.500000
vt 0.050000 0.490868
vt 0.000000 0.490866
vt 0.000000 0.500000
vt 0.100000 0.500000
vt 0.100000 0.490870
vt 0.150000 0.500000
vt 0.150000 0.490870
vt 0.200000 0.500000
vt 0.200000 0.490868
vt 0.250000 0.500000
vt 0.250000 0.490866
vt 0.050000 0.482834
vt 0.000000 0.482833
vt 0.100000 0.482835
vt 0.150000 0.482835
vt 0.200000 0.482834
vt 0.250000 0.482833
vt 0.050000 0.475166
vt 0.000000 0.475167
vt 0.100000 0.475165
vt 0.150000 0.475165
vt 0.200000 0.475166
vt 0.250000 0.475167
vt 0.050000 0.467132
vt 0.000000 0.467134
vt 0.100000 0.467130
vt 0.150000 0.467130
vt 0.200000 0.467132
vt 0.250000 0.467134
vt 0.050000 0.458000
vt 0.000000 0.458000
vt 0.100000 0.458000
vt 0.150000 0.458000
vt 0.200000 0.458000
vt 0.250000 0.458000
vt 0.300000 0.500000
vt 0.300000 0.490868
vt 0.350000 0.500000
vt 0.350000 0.490870
vt 0.400000 0.500000
vt 0.400000 0.490870
vt 0.450000 0.500000
vt 0.450000 0.490868
vt 0.500000 0.500000
vt 0.500000 0.490866
vt 0.300000 0.482834
vt 0.350000 0.482835
vt 0.400000 0.482835
vt 0.450000 0.482834
vt 0.500000 0.482833
vt 0.300000 0.475166
vt 0.350000 0.475165
vt 0.400000 0.475165
vt 0.450000 0.475166
vt 0.500000 0.475167
vt 0.300000 0.467132
vt 0.350000 0.467130
vt 0.400000 0.467130
vt 0.450000 0.467132
vt 0.500000 0.467134
vt 0.300000 0.458000
vt 0.350000 0.458000
vt 0.400000 0.458000
vt 0.450000 0.458000
vt 0.500000 0.458000
vt 0.750000 0.490866
vt 0.700000 0.490868
vt 0.700000 0.500000
vt 0.750000 0.500000
vt 0.650000 0.490870
vt 0.650000 0.500000
vt 0.600000 0.490870
vt 0.600000 0.500000
vt 0.550000 0.490868
vt 0.550000 0.500000
vt 0.750000 0.482833
vt 0.700000 0.482834
vt 0.650000 0.482835
vt 0.600000 0.482835
vt 0.550000 0.482834
vt 0.750000 0.475167
vt 0.700000 0.475166
vt 0.650000 0.475165
vt 0.600000 0.475165
vt 0.550000 0.475166
vt 0.750000 0.467134
vt 0.700000 0.467132
vt 0.650000 0.467130
vt 0.600000 0.467130
vt 0.550000 0.467132
vt 0.750000 0.458000
vt 0.700000 0.458000
vt 0.650000 0.458000
vt 0.600000 0.458000
vt 0.550000 0.458000
vt 1.000000 0.490866
vt 0.950000 0.490868
vt 0.950000 0.500000
vt 1.000000 0.500000
vt 0.900000 0.490870
vt 0.900000 0.500000
vt 0.850000 0.490870
vt 0.850000 0.500000
vt 0.800000 0.490868
vt 0.800000 0.500000
vt 1.000000 0.482833
vt 0.950000 0.482834
vt 0.900000 0.482835
vt 0.850000 0.482835
vt 0.800000 0.482834
vt 1.000000 0.475167
vt 0.950000 0.475166
vt 0.900000 0.475165
vt 0.850000 0.475165
vt 0.800000 0.475166
vt 1.000000 0.467134
vt 0.950000 0.467132
vt 0.900000 0.467130
vt 0.850000 0.467130
vt 0.800000 0.467132
vt 1.000000 0.458000
vt 0.950000 0.458000
vt 0.900000 0.458000
vt 0.850000 0.458000
vt 0.800000 0.458000
vt 0.050000 0.417705
vt 0.000000 0.417708
vt 0.100000 0.417703
vt 0.150000 0.417703
vt 0.200000 0.417705
vt 0.250000 0.417708
vt 0.050000 0.378035
vt 0.000000 0.378039
vt 0.100000 0.378030
vt 0.150000 0.378030
vt 0.200000 0.378035
vt 0.250000 0.378039
vt 0.050000 0.339611
vt 0.000000 0.339616
vt 0.100000 0.339606
vt 0.150000 0.339606
vt 0.200000 0.339611
vt 0.250000 0.339616
vt 0.050000 0.303058
vt 0.000000 0.303062
vt 0.100000 0.303055
vt 0.150000 0.303055
vt 0.200000 0.303058
vt 0.250000 0.303062
vt 0.050000 0.269000
vt 0.000000 0.269000
vt 0.100000 0.269000
vt 0.150000 0.269000
vt 0.200000 0.269000
vt 0.250000 0.269000
vt 0.300000 0.417705
vt 0.350000 0.417703
vt 0.400000 0.417703
vt 0.450000 0.417705
vt 0.500000 0.417708
vt 0.300000 0.378035
vt 0.350000 0.378030
vt 0.400000 0.378030
vt 0.450000 0.378035
vt 0.500000 0.378039
vt 0.300000 0.339611
vt 0.350000 0.339606
vt 0.400000 0.339606
vt 0.450000 0.339611
vt 0.500000 0.339616
vt 0.300000 0.303058
vt 0.350000 0.303055
vt 0.400000 0.303055
vt 0.450000 0.303058
vt 0.500000 0.303062
vt 0.300000 0.269000
vt 0.350000 0.269000
vt 0.400000 0.269000
vt 0.450000 0.269000
vt 0.500000 0.269000
vt 0.750000 0.417708
vt 0.700000 0.417705
vt 0.650000 0.417703
vt 0.600000 0.417703
vt 0.550000 0.417705
vt 0.750000 0.378039
vt 0.700000 0.378035
vt 0.650000 0.378030
vt 0.600000 0.378030
vt 0.550000 0.378035
vt 0.750000 0.339616
vt 0.700000 0.339611
vt 0.650000 0.339606
vt 0.600000 0.339606
vt 0.550000 0.339611
vt 0.750000 0.303062
vt 0.700000 0.303058
vt 0.650000 0.303055
vt 0.600000 0.303055
vt 0.550000 0.303058
vt 0.750000 0.269000
vt 0.700000 0.269000
vt 0.650000 0.269000
vt 0.600000 0.269000
vt 0.550000 0.269000
vt 1.000000 0.417708
vt 0.950000 0.417705
vt 0.900000 0.417703
vt 0.850000 0.417703
vt 0.800000 0.417705
vt 1.000000 0.378039
vt 0.950000 0.378035
vt 0.900000 0.378030
vt 0.850000 0.378030
vt 0.800000 0.378035
vt 1.000000 0.339616
vt 0.950000 0.339611
vt 0.900000 0.339606
vt 0.850000 0.339606
vt 0.800000 0.339611
vt 1.000000 0.303062
vt 0.950000 0.303058
vt 0.900000 0.303055
vt 0.850000 0.303055
vt 0.800000 0.303058
vt 1.000000 0.269000
vt 0.950000 0.269000
vt 0.900000 0.269000
vt 0.850000 0.269000
vt 0.800000 0.269000
vt 0.050000 0.236159
vt 0.000000 0.236146
vt 0.100000 0.236172
vt 0.150000 0.236172
vt 0.200000 0.236159
vt 0.250000 0.236146
vt 0.050000 0.205757
vt 0.000000 0.205744
vt 0.100000 0.205771
vt 0.150000 0.205771
vt 0.200000 0.205757
vt 0.250000 0.205744
vt 0.050000 0.179876
vt 0.000000 0.179868
vt 0.100000 0.179884
vt 0.150000 0.179884
vt 0.200000 0.179876
vt 0.250000 0.179868
vt 0.050000 0.160596
vt 0.000000 0.160595
vt 0.100000 0.160598
vt 0.150000 0.160598
vt 0.200000 0.160596
vt 0.250000 0.160595
vt 0.050000 0.150000
vt 0.000000 0.150000
vt 0.100000 0.150000
vt 0.150000 0.150000
vt 0.200000 0.150000
vt 0.250000 0.150000
vt 0.300000 0.236159
vt 0.350000 0.236172
vt 0.400000 0.236172
vt 0.450000 0.236159
vt 0.500000 0.236146
vt 0.300000 0.205757
vt 0.350000 0.205771
vt 0.400000 0.205771
vt 0.450000 0.205757
vt 0.500000 0.205744
vt 0.300000 0.179876
vt 0.350000 0.179884
vt 0.400000 0.179884
vt 0.450000 0.179876
vt 0.500000 0.179868
vt 0.300000 0.160596
vt 0.350000 0.160598
vt 0.400000 0.160598
vt 0.450000 0.160596
vt 0.500000 0.160595
vt 0.300000 0.150000
vt 0.350000 0.150000
vt 0.400000 0.150000
vt 0.450000 0.150000
vt 0.500000 0.150000
vt 0.750000 0.236146
vt 0.700000 0.236159
vt 0.650000 0.236172
vt 0.600000 0.236172
vt 0.550000 0.236159
vt 0.750000 0.205744
vt 0.700000 0.205757
vt 0.650000 0.205771
vt 0.600000 0.205771
vt 0.550000 0.205757
vt 0.750000 0.179868
vt 0.700000 0.179876
vt 0.650000 0.179884
vt 0.600000 0.179884
vt 0.550000 0.179876
vt 0.750000 0.160595
vt 0.700000 0.160596
vt 0.650000 0.160598
vt 0.600000 0.160598
vt 0.550000 0.160596
vt 0.750000 0.150000
vt 0.700000 0.150000
vt 0.650000 0.150000
vt 0.600000 0.150000
vt 0.550000 0.150000
vt 1.000000 0.236146
vt 0.950000 0.236159
vt 0.900000 0.236172
vt 0.850000 0.236172
vt 0.800000 0.236159
vt 1.000000 0.205744
vt 0.950000 0.205757
vt 0.900000 0.205771
vt 0.850000 0.205771
vt 0.800000 0.205757
vt 1.000000 0.179868
vt 0.950000 0.179876
vt 0.900000 0.179884
vt 0.850000 0.179884
vt 0.800000 0.179876
vt 1.000000 0.160595
vt 0.950000 0.160596
vt 0.900000 0.160598
vt 0.850000 0.160598
vt 0.800000 0.160596
vt 1.000000 0.150000
vt 0.950000 0.150000
vt 0.900000 0.150000
vt 0.850000 0.150000
vt 0.800000 0.150000
s 1
f 2/1/1 8/2/2 7/3/3 1/4/4
f 3/5/5 9/6/6 8/2/2 2/1/1
f 4/7/7 10/8/8 9/6/6 3/5/5
f 5/9/9 11/10/10 10/8/8 4/7/7
f 6/11/11 12/12/12 11/10/10 5/9/9
f 8/2/2 14/13/13 13/14/14 7/3/3
f 9/6/6 15/15/15 14/13/13 8/2/2
f 10/8/8 16/16/16 15/15/15 9/6/6
f 11/10/10 17/17/17 16/16/16 10/8/8
f 12/12/12 18/18/18 17/17/17 11/10/10
f 14/13/13 20/19/19 19/20/20 13/14/14
f 15/15/15 21/21/21 20/19/19 14/13/13
f 16/16/16 22/22/22 21/21/21 15/15/15
f 17/17/17 23/23/23 22/22/22 16/16/16
f 18/18/18 24/24/24 23/23/23 17/17/17
f 20/19/19 26/25/25 25/26/26 19/20/20
f 21/21/21 27/27/27 26/25/25 20/19/19
f 22/22/22 28/28/28 27/27/27 21/21/21
f 23/23/23 29/29/29 28/28/28 22/22/22
f 24/24/24 30/30/30 29/29/29 23/23/23
f 26/25/25 32/31/31 31/32/32 25/26/26
f 27/27/27 33/33/33 32/31/31 26/25/25
f 28/28/28 34/34/34 33/33/33 27/27/27
f 29/29/29 35/35/35 34/34/34 28/28/28
f 30/30/30 36/36/36 35/35/35 29/29/29
f 7/3/3 41/37/37 37/38/38 1/4/4
f 41/37/37 42/39/39 38/40/40 37/38/38
f 42/39/39 43/41/41 39/42/42 38/40/40
f 43/41/41 44/43/43 40/44/44 39/42/42
f 44/43/43 12/45/12 6/46/11 40/44/44
f 13/14/14 45/47/45 41/37/37 7/3/3
f 45/47/45 46/48/46 42/39/39 41/37/37
f 46/48/46 47/49/47 43/41/41 42/39/39
f 47/49/47 48/50/48 44/43/43 43/41/41
f 48/50/48 18/51/18 12/45/12 44/43/43
f 19/20/20 49/52/49 45/47/45 13/14/14
f 49/52/49 50/53/50 46/48/46 45/47/45
f 50/53/50 51/54/51 47/49/47 46/48/46
f 51/54/51 52/55/52 48/50/48 47/49/47
f 52/55/52 24/56/24 18/51/18 48/50/48
f 25/26/26 53/57/53 49/52/49 19/20/20
f 53/57/53 54/58/54 50/53/50 49/52/49
f 54/58/54 55/59/55 51/54/51 50/53/50
f 55/59/55 56/60/56 52/55/52 51/54/51
f 56/60/56 30/61/30 24/56/24 52/55/52
f 31/32/32 57/62/57 53/57/53 25/26/26
f 57/62/57 58/63/58 54/58/54 53/57/53
f 58/63/58 59/64/59 55/59/55 54/58/54
f 59/64/59 60/65/60 56/60/56 55/59/55
f 60/65/60 36/66/36 30/61/30 56/60/56
f 32/31/31 62/67/61 61/68/62 31/32/32
f 33/33/33 63/69/63 62/67/61 32/31/31
f 34/34/34 64/70/64 63/69/63 33/33/33
f 35/35/35 65/71/65 64/70/64 34/34/34
f 36/36/36 66/72/66 65/71/65 35/35/35
f 62/67/61 68/73/67 67/74/68 61/68/62
f 63/69/63 69/75/69 68/73/67 62/67/61
f 64/70/64 70/76/70 69/75/69 63/69/63
f 65/71/65 71/77/71 70/76/70 64/70/64
f 66/72/66 72/78/72 71/77/71 65/71/65
f 68/73/67 74/79/73 73/80/74 67/74/68
f 69/75/69 75/81/75 74/79/73 68/73/67
f 70/76/70 76/82/76 75/81/75 69/75/69
f 71/77/71 77/83/77 76/82/76 70/76/70
f 72/78/72 78/84/78 77/83/77 71/77/71
f 74/79/73 80/85/79 79/86/80 73/80/74
f 75/81/75 81/87/81 80/85/79 74/79/73
f 76/82/76 82/88/82 81/87/81 75/81/75
f 77/83/77 83/89/83 82/88/82 76/82/76
f 78/84/78 84/90/84 83/89/83 77/83/77
f 80/85/79 86/91/85 85/92/86 79/86/80
f 81/87/81 87/93/87 86/91/85 80/85/79
f 82/88/82 88/94/88 87/93/87 81/87/81
f 83/89/83 89/95/89 88/94/88 82/88/82
f 84/90/84 90/96/90 89/95/89 83/89/83
f 61/68/62 91/97/91 57/62/57 31/32/32
f 91/97/91 92/98/92 58/63/58 57/62/57
f 92/98/92 93/99/93 59/64/59 58/63/58
f 93/99/93 94/100/94 60/65/60 59/64/59
f 94/100/94 66/101/66 36/66/36 60/65/60
f 67/74/68 95/102/95 91/97/91 61/68/62
f 95/102/95 96/103/96 92/98/92 91/97/91
f 96/103/96 97/104/97 93/99/93 92/98/92
f 97/104/97 98/105/98 94/100/94 93/99/93
f 98/105/98 72/106/72 66/101/66 94/100/94
f 73/80/74 99/107/99 95/102/95 67/74/68
f 99/107/99 100/108/100 96/103/96 95/102/95
f 100/108/100 101/109/101 97/104/97 96/103/96
f 101/109/101 102/110/102 98/105/98 97/104/97
f 102/110/102 78/111/78 72/106/72 98/105/98
f 79/86/80 103/112/103 99/107/99 73/80/74
f 103/112/103 104/113/104 100/108/100 99/107/99
f 104/113/104 105/114/105 101/109/101 100/108/100
f 105/114/105 106/115/106 102/110/102 101/109/101
f 106/115/106 84/116/84 78/111/78 102/110/102
f 85/92/86 107/117/107 103/112/103 79/86/80
f 107/117/107 108/118/108 104/113/104 103/112/103
f 108/118/108 109/119/109 105/114/105 104/113/104
f 109/119/109 110/120/110 106/115/106 105/114/105
f 110/120/110 90/121/90 84/116/84 106/115/106
f 112/122/111 118/123/112 117/124/113 111/125/114
f 113/126/115 119/127/116 118/123/112 112/122/111
f 114/128/117 120/129/118 119/127/116 113/126/115
f 115/130/119 121/131/120 120/129/118 114/128/117
f 116/132/121 122/133/122 121/131/120 115/130/119
f 118/123/112 124/134/123 123/135/124 117/124/113
f 119/127/116 125/136/125 124/134/123 118/123/112
f 120/129/118 126/137/126 125/136/125 119/127/116
f 121/131/120 127/138/127 126/137/126 120/129/118
f 122/133/122 128/139/128 127/138/127 121/131/120
f 124/134/123 130/140/129 129/141/130 123/135/124
f 125/136/125 131/142/131 130/140/129 124/134/123
f 126/137/126 132/143/132 131/142/131 125/136/125
f 127/138/127 133/144/133 132/143/132 126/137/126
f 128/139/128 134/145/134 133/144/133 127/138/127
f 130/140/129 136/146/135 135/147/136 129/141/130
f 131/142/131 137/148/137 136/146/135 130/140/129
f 132/143/132 138/149/138 137/148/137 131/142/131
f 133/144/133 139/150/139 138/149/138 132/143/132
f 134/145/134 140/151/140 139/150/139 133/144/133
f 136/146/135 142/152/141 141/153/142 135/147/136
f 137/148/137 143/154/143 142/152/141 136/146/135
f 138/149/138 144/155/144 143/154/143 137/148/137
f 139/150/139 145/156/145 144/155/144 138/149/138
f 140/151/140 146/157/146 145/156/145 139/150/139
f 117/158/113 151/159/147 147/160/148 111/161/114
f 151/159/147 152/162/149 148/163/150 147/160/148
f 152/162/149 153/164/151 149/165/152 148/163/150
f 153/164/151 154/166/153 150/167/154 149/165/152
f 154/166/153 122/133/122 116/132/121 150/167/154
f 123/168/124 155/169/155 151/159/147 117/158/113
f 155/169/155 156/170/156 152/162/149 151/159/147
f 156/170/156 157/171/157 153/164/151 152/162/149
f 157/171/157 158/172/158 154/166/153 153/164/151
f 158/172/158 128/139/128 122/133/122 154/166/153
f 129/173/130 159/174/159 155/169/155 123/168/124
f 159/174/159 160/175/160 156/170/156 155/169/155
f 160/175/160 161/176/161 157/171/157 156/170/156
f 161/176/161 162/177/162 158/172/158 157/171/157
f 162/177/162 134/145/134 128/139/128 158/172/158
f 135/178/136 163/179/163 159/174/159 129/173/130
f 163/179/163 164/180/164 160/175/160 159/174/159
f 164/180/164 165/181/165 161/176/161 160/175/160
f 165/181/165 166/182/166 162/177/162 161/176/161
f 166/182/166 140/151/140 134/145/134 162/177/162
f 141/183/142 167/184/167 163/179/163 135/178/136
f 167/184/167 168/185/168 164/180/164 163/179/163
f 168/185/168 169/186/169 165/181/165 164/180/164
f 169/186/169 170/187/170 166/182/166 165/181/165
f 170/187/170 146/157/146 140/151/140 166/182/166
f 142/152/141 172/188/171 171/189/172 141/153/142
f 143/154/143 173/190/173 172/188/171 142/152/141
f 144/155/144 174/191/174 173/190/173 143/154/143
f 145/156/145 175/192/175 174/191/174 144/155/144
f 146/157/146 176/193/176 175/192/175 145/156/145
f 172/188/171 178/194/177 177/195/178 171/189/172
f 173/190/173 179/196/179 178/194/177 172/188/171
f 174/191/174 180/197/180 179/196/179 173/190/173
f 175/192/175 181/198/181 180/197/180 174/191/174
f 176/193/176 182/199/182 181/198/181 175/192/175
f 178/194/177 184/200/183 183/201/184 177/195/178
f 179/196/179 185/202/185 184/200/183 178/194/177
f 180/197/180 186/203/186 185/202/185 179/196/179
f 181/198/181 187/204/187 186/203/186 180/197/180
f 182/199/182 188/205/188 187/204/187 181/198/181
f 184/200/183 190/206/189 189/207/190 183/201/184
f 185/202/185 191/208/191 190/206/189 184/200/183
f 186/203/186 192/209/192 191/208/191 185/202/185
f 187/204/187 193/210/193 192/209/192 186/203/186
f 188/205/188 194/211/194 193/210/193 187/204/187
f 190/206/189 196/212/195 195/213/4 189/207/190
f 191/208/191 197/214/196 196/212/195 190/206/189
f 192/209/192 198/215/197 197/214/196 191/208/191
f 193/210/193 199/216/198 198/215/197 192/209/192
f 194/211/194 200/217/199 199/216/198 193/210/193
f 171/218/172 201/219/200 167/184/167 141/183/142
f 201/219/200 202/220/201 168/185/168 167/184/167
f 202/220/201 203/221/202 169/186/169 168/185/168
f 203/221/202 204/222/203 170/187/170 169/186/169
f 204/222/203 176/193/176 146/157/146 170/187/170
f 177/223/178 205/224/204 201/219/200 171/218/172
f 205/224/204 206/225/205 202/220/201 201/219/200
f 206/225/205 207/226/206 203/221/202 202/220/201
f 207/226/206 208/227/207 204/222/203 203/221/202
f 208/227/207 182/199/182 176/193/176 204/222/203
f 183/228/184 209/229/208 205/224/204 177/223/178
f 209/229/208 210/230/209 206/225/205 205/224/204
f 210/230/209 211/231/210 207/226/206 206/225/205
f 211/231/210 212/232/211 208/227/207 207/226/206
f 212/232/211 188/205/188 182/199/182 208/227/207
f 189/233/190 213/234/212 209/229/208 183/228/184
f 213/234/212 214/235/213 210/230/209 209/229/208
f 214/235/213 215/236/214 211/231/210 210/230/209
f 215/236/214 216/237/215 212/232/211 211/231/210
f 216/237/215 194/211/194 188/205/188 212/232/211
f 195/238/4 217/239/216 213/234/212 189/233/190
f 217/239/216 218/240/217 214/235/213 213/234/212
f 218/240/217 219/241/218 215/236/214 214/235/213
f 219/241/218 220/242/219 216/237/215 215/236/214
f 220/242/219 200/217/199 194/211/194 216/237/215
f 221/243/4 223/244/220 222/245/221
f 221/243/4 224/246/222 223/244/220
f 221/243/4 225/247/223 224/246/222
f 221/243/4 226/248/224 225/247/223
f 221/243/4 227/249/225 226/248/224
f 223/244/220 229/250/226 228/251/227 222/245/221
f 224/246/222 230/252/228 229/250/226 223/244/220
f 225/247/223 231/253/229 230/252/228 224/246/222
f 226/248/224 232/254/230 231/253/229 225/247/223
f 227/249/225 233/255/231 232/254/230 226/248/224
f 229/250/226 235/256/232 234/257/233 228/251/227
f 230/252/228 236/258/234 235/256/232 229/250/226
f 231/253/229 237/259/235 236/258/234 230/252/228
f 232/254/230 238/260/236 237/259/235 231/253/229
f 233/255/231 239/261/237 238/260/236 232/254/230
f 235/256/232 241/262/238 240/263/239 234/257/233
f 236/258/234 242/264/240 241/262/238 235/256/232
f 237/259/235 243/265/241 242/264/240 236/258/234
f 238/260/236 244/266/242 243/265/241 237/259/235
f 239/261/237 245/267/243 244/266/242 238/260/236
f 241/262/238 247/268/244 246/269/142 240/263/239
f 242/264/240 248/270/245 247/268/244 241/262/238
f 243/265/241 249/271/246 248/270/245 242/264/240
f 244/266/242 250/272/247 249/271/246 243/265/241
f 245/267/243 251/273/248 250/272/247 244/266/242
f 221/243/4 252/274/249 227/249/225
f 221/243/4 253/275/250 252/274/249
f 221/243/4 254/276/251 253/275/250
f 221/243/4 255/277/252 254/276/251
f 221/243/4 256/278/253 255/277/252
f 252/274/249 257/279/254 233/255/231 227/249/225
f 253/275/250 258/280/255 257/279/254 252/274/249
f 254/276/251 259/281/256 258/280/255 253/275/250
f 255/277/252 260/282/257 259/281/256 254/276/251
f 256/278/253 261/283/258 260/282/257 255/277/252
f 257/279/254 262/284/259 239/261/237 233/255/231
f 258/280/255 263/285/260 262/284/259 257/279/254
f 259/281/256 264/286/261 263/285/260 258/280/255
f 260/282/257 265/287/262 264/286/261 259/281/256
f 261/283/258 266/288/263 265/287/262 260/282/257
f 262/284/259 267/289/264 245/267/243 239/261/237
f 263/285/260 268/290/265 267/289/264 262/284/259
f 264/286/261 269/291/266 268/290/265 263/285/260
f 265/287/262 270/292/267 269/291/266 264/286/261
f 266/288/263 271/293/268 270/292/267 265/287/262
f 267/289/264 272/294/269 251/273/248 245/267/243
f 268/290/265 273/295/270 272/294/269 267/289/264
f 269/291/266 274/296/271 273/295/270 268/290/265
f 270/292/267 275/297/272 274/296/271 269/291/266
f 271/293/268 276/298/273 275/297/272 270/292/267
f 277/299/274 278/300/275 221/243/4
f 278/300/275 279/301/276 221/243/4
f 279/301/276 280/302/277 221/243/4
f 280/302/277 281/303/278 221/243/4
f 281/303/278 256/278/253 221/243/4
f 282/304/279 283/305/280 278/300/275 277/299/274
f 283/305/280 284/306/281 279/301/276 278/300/275
f 284/306/281 285/307/282 280/302/277 279/301/276
f 285/307/282 286/308/283 281/303/278 280/302/277
f 286/308/283 261/283/258 256/278/253 281/303/278
f 287/309/284 288/310/285 283/305/280 282/304/279
f 288/310/285 289/311/286 284/306/281 283/305/280
f 289/311/286 290/312/287 285/307/282 284/306/281
f 290/312/287 291/313/288 286/308/283 285/307/282
f 291/313/288 266/288/263 261/283/258 286/308/283
f 292/314/289 293/315/290 288/310/285 287/309/284
f 293/315/290 294/316/291 289/311/286 288/310/285
f 294/316/291 295/317/292 290/312/287 289/311/286
f 295/317/292 296/318/293 291/313/288 290/312/287
f 296/318/293 271/293/268 266/288/263 291/313/288
f 297/319/294 298/320/295 293/315/290 292/314/289
f 298/320/295 299/321/296 294/316/291 293/315/290
f 299/321/296 300/322/297 295/317/292 294/316/291
f 300/322/297 301/323/298 296/318/293 295/317/292
f 301/323/298 276/298/273 271/293/268 296/318/293
f 222/245/221 302/324/299 221/243/4
f 302/324/299 303/325/300 221/243/4
f 303/325/300 304/326/301 221/243/4
f 304/326/301 305/327/302 221/243/4
f 305/327/302 277/299/274 221/243/4
f 228/251/227 306/328/303 302/324/299 222/245/221
f 306/328/303 307/329/304 303/325/300 302/324/299
f 307/329/304 308/330/305 304/326/301 303/325/300
f 308/330/305 309/331/306 305/327/302 304/326/301
f 309/331/306 282/304/279 277/299/274 305/327/302
f 234/257/233 310/332/307 306/328/303 228/251/227
f 310/332/307 311/333/308 307/329/304 306/328/303
f 311/333/308 312/334/309 308/330/305 307/329/304
f 312/334/309 313/335/310 309/331/306 308/330/305
f 313/335/310 287/309/284 282/304/279 309/331/306
f 240/263/239 314/336/311 310/332/307 234/257/233
f 314/336/311 315/337/312 311/333/308 310/332/307
f 315/337/312 316/338/313 312/334/309 311/333/308
f 316/338/313 317/339/314 313/335/310 312/334/309
f 317/339/314 292/314/289 287/309/284 313/335/310
f 246/269/142 318/340/315 314/336/311 240/263/239
f 318/340/315 319/341/316 315/337/312 314/336/311
f 319/341/316 320/342/317 316/338/313 315/337/312
f 320/342/317 321/343/318 317/339/314 316/338/313
f 321/343/318 297/319/294 292/314/289 317/339/314
f 247/344/244 323/345/319 322/346/320 246/347/142
f 248/348/245 324/349/321 323/345/319 247/344/244
f 249/350/246 325/351/322 324/349/321 248/348/245
f 250/352/247 326/353/323 325/351/322 249/350/246
f 251/354/248 327/355/324 326/353/323 250/352/247
f 323/345/319 329/356/325 328/357/326 322/346/320
f 324/349/321 330/358/327 329/356/325 323/345/319
f 325/351/322 331/359/328 330/358/327 324/349/321
f 326/353/323 332/360/329 331/359/328 325/351/322
f 327/355/324 333/361/330 332/360/329 326/353/323
f 329/356/325 335/362/331 334/363/332 328/357/326
f 330/358/327 336/364/333 335/362/331 329/356/325
f 331/359/328 337/365/334 336/364/333 330/358/327
f 332/360/329 338/366/335 337/365/334 331/359/328
f 333/361/330 339/367/336 338/366/335 332/360/329
f 335/362/331 341/368/337 340/369/338 334/363/332
f 336/364/333 342/370/339 341/368/337 335/362/331
f 337/365/334 343/371/340 342/370/339 336/364/333
f 338/366/335 344/372/341 343/371/340 337/365/334
f 339/367/336 345/373/342 344/372/341 338/366/335
f 341/368/337 347/374/343 346/375/344 340/369/338
f 342/370/339 348/376/345 347/374/343 341/368/337
f 343/371/340 349/377/346 348/376/345 342/370/339
f 344/372/341 350/378/347 349/377/346 343/371/340
f 345/373/342 351/379/348 350/378/347 344/372/341
f 272/380/269 352/381/349 327/355/324 251/354/248
f 273/382/270 353/383/350 352/381/349 272/380/269
f 274/384/271 354/385/351 353/383/350 273/382/270
f 275/386/272 355/387/352 354/385/351 274/384/271
f 276/388/273 356/389/353 355/387/352 275/386/272
f 352/381/349 357/390/354 333/361/330 327/355/324
f 353/383/350 358/391/355 357/390/354 352/381/349
f 354/385/351 359/392/356 358/391/355 353/383/350
f 355/387/352 360/393/357 359/392/356 354/385/351
f 356/389/353 361/394/358 360/393/357 355/387/352
f 357/390/354 362/395/359 339/367/336 333/361/330
f 358/391/355 363/396/360 362/395/359 357/390/354
f 359/392/356 364/397/361 363/396/360 358/391/355
f 360/393/357 365/398/362 364/397/361 359/392/356
f 361/394/358 366/399/363 365/398/362 360/393/357
f 362/395/359 367/400/364 345/373/342 339/367/336
f 363/396/360 368/401/365 367/400/364 362/395/359
f 364/397/361 369/402/366 368/401/365 363/396/360
f 365/398/362 370/403/367 369/402/366 364/397/361
f 366/399/363 371/404/368 370/403/367 365/398/362
f 367/400/364 372/405/369 351/379/348 345/373/342
f 368/401/365 373/406/370 372/405/369 367/400/364
f 369/402/366 374/407/371 373/406/370 368/401/365
f 370/403/367 375/408/372 374/407/371 369/402/366
f 371/404/368 376/409/373 375/408/372 370/403/367
f 377/410/374 378/411/375 298/412/295 297/413/294
f 378/411/375 379/414/376 299/415/296 298/412/295
f 379/414/376 380/416/377 300/417/297 299/415/296
f 380/416/377 381/418/378 301/419/298 300/417/297
f 381/418/378 356/389/353 276/388/273 301/419/298
f 382/420/379 383/421/380 378/411/375 377/410/374
f 383/421/380 384/422/381 379/414/376 378/411/375
f 384/422/381 385/423/382 380/416/377 379/414/376
f 385/423/382 386/424/383 381/418/378 380/416/377
f 386/424/383 361/394/358 356/389/353 381/418/378
f 387/425/384 388/426/385 383/421/380 382/420/379
f 388/426/385 389/427/386 384/422/381 383/421/380
f 389/427/386 390/428/387 385/423/382 384/422/381
f 390/428/387 391/429/388 386/424/383 385/423/382
f 391/429/388 366/399/363 361/394/358 386/424/383
f 392/430/389 393/431/390 388/426/385 387/425/384
f 393/431/390 394/432/391 389/427/386 388/426/385
f 394/432/391 395/433/392 390/428/387 389/427/386
f 395/433/392 396/434/393 391/429/388 390/428/387
f 396/434/393 371/404/368 366/399/363 391/429/388
f 397/435/394 398/436/395 393/431/390 392/430/389
f 398/436/395 399/437/396 394/432/391 393/431/390
f 399/437/396 400/438/397 395/433/392 394/432/391
f 400/438/397 401/439/398 396/434/393 395/433/392
f 401/439/398 376/409/373 371/404/368 396/434/393
f 322/346/320 402/440/399 318/441/315 246/347/142
f 402/440/399 403/442/400 319/443/316 318/441/315
f 403/442/400 404/444/401 320/445/317 319/443/316
f 404/444/401 405/446/402 321/447/318 320/445/317
f 405/446/402 377/410/374 297/413/294 321/447/318
f 328/357/326 406/448/403 402/440/399 322/346/320
f 406/448/403 407/449/404 403/442/400 402/440/399
f 407/449/404 408/450/405 404/444/401 403/442/400
f 408/450/405 409/451/406 405/446/402 404/444/401
f 409/451/406 382/420/379 377/410/374 405/446/402
f 334/363/332 410/452/407 406/448/403 328/357/326
f 410/452/407 411/453/408 407/449/404 406/448/403
f 411/453/408 412/454/409 408/450/405 407/449/404
f 412/454/409 413/455/410 409/451/406 408/450/405
f 413/455/410 387/425/384 382/420/379 409/451/406
f 340/369/338 414/456/411 410/452/407 334/363/332
f 414/456/411 415/457/412 411/453/408 410/452/407
f 415/457/412 416/458/413 412/454/409 411/453/408
f 416/458/413 417/459/414 413/455/410 412/454/409
f 417/459/414 392/430/389 387/425/384 413/455/410
f 346/375/344 418/460/415 414/456/411 340/369/338
f 418/460/415 419/461/416 415/457/412 414/456/411
f 419/461/416 420/462/417 416/458/413 415/457/412
f 420/462/417 421/463/418 417/459/414 416/458/413
f 421/463/418 397/435/394 392/430/389 417/459/414
f 423/464/419 429/465/420 428/466/421 422/467/422
f 424/468/423 430/469/424 429/465/420 423/464/419
f 425/470/425 431/471/426 430/469/424 424/468/423
f 426/472/427 432/473/428 431/471/426 425/470/425
f 427/474/429 433/475/430 432/473/428 426/472/427
f 429/465/420 435/476/431 434/477/432 428/466/421
f 430/469/424 436/478/433 435/476/431 429/465/420
f 431/471/426 437/479/434 436/478/433 430/469/424
f 432/473/428 438/480/435 437/479/434 431/471/426
f 433/475/430 439/481/436 438/480/435 432/473/428
f 435/476/431 441/482/437 440/483/438 434/477/432
f 436/478/433 442/484/439 441/482/437 435/476/431
f 437/479/434 443/485/440 442/484/439 436/478/433
f 438/480/435 444/486/441 443/485/440 437/479/434
f 439/481/436 445/487/442 444/486/441 438/480/435
f 441/482/437 447/488/443 446/489/444 440/483/438
f 442/484/439 448/490/445 447/488/443 441/482/437
f 443/485/440 449/491/446 448/490/445 442/484/439
f 444/486/441 450/492/447 449/491/446 443/485/440
f 445/487/442 451/493/448 450/492/447 444/486/441
f 447/488/443 453/494/449 452/495/450 446/489/444
f 448/490/445 454/496/451 453/494/449 447/488/443
f 449/491/446 455/497/452 454/496/451 448/490/445
f 450/492/447 456/498/453 455/497/452 449/491/446
f 451/493/448 457/499/454 456/498/453 450/492/447
f 458/500/455 463/501/456 433/475/430 427/474/429
f 459/502/457 464/503/458 463/501/456 458/500/455
f 460/504/459 465/505/460 464/503/458 459/502/457
f 461/506/461 466/507/462 465/505/460 460/504/459
f 462/508/463 467/509/464 466/507/462 461/506/461
f 463/501/456 468/510/465 439/481/436 433/475/430
f 464/503/458 469/511/466 468/510/465 463/501/456
f 465/505/460 470/512/467 469/511/466 464/503/458
f 466/507/462 471/513/468 470/512/467 465/505/460
f 467/509/464 472/514/469 471/513/468 466/507/462
f 468/510/465 473/515/470 445/487/442 439/481/436
f 469/511/466 474/516/471 473/515/470 468/510/465
f 470/512/467 475/517/472 474/516/471 469/511/466
f 471/513/468 476/518/473 475/517/472 470/512/467
f 472/514/469 477/519/474 476/518/473 471/513/468
f 473/515/470 478/520/475 451/493/448 445/487/442
f 474/516/471 479/521/476 478/520/475 473/515/470
f 475/517/472 480/522/477 479/521/476 474/516/471
f 476/518/473 481/523/478 480/522/477 475/517/472
f 477/519/474 482/524/479 481/523/478 476/518/473
f 478/520/475 483/525/480 457/499/454 451/493/448
f 479/521/476 484/526/481 483/525/480 478/520/475
f 480/522/477 485/527/482 484/526/481 479/521/476
f 481/523/478 486/528/483 485/527/482 480/522/477
f 482/524/479 487/529/484 486/528/483 481/523/478
f 493/530/485 494/531/486 489/532/487 488/533/488
f 494/531/486 495/534/489 490/535/490 489/532/487
f 495/534/489 496/536/491 491/537/492 490/535/490
f 496/536/491 497/538/493 492/539/494 491/537/492
f 497/538/493 467/509/464 462/508/463 492/539/494
f 498/540/495 499/541/496 494/531/486 493/530/485
f 499/541/496 500/542/497 495/534/489 494/531/486
f 500/542/497 501/543/498 496/536/491 495/534/489
f 501/543/498 502/544/499 497/538/493 496/536/491
f 502/544/499 472/514/469 467/509/464 497/538/493
f 503/545/500 504/546/501 499/541/496 498/540/495
f 504/546/501 505/547/502 500/542/497 499/541/496
f 505/547/502 506/548/503 501/543/498 500/542/497
f 506/548/503 507/549/504 502/544/499 501/543/498
f 507/549/504 477/519/474 472/514/469 502/544/499
f 508/550/505 509/551/506 504/546/501 503/545/500
f 509/551/506 510/552/507 505/547/502 504/546/501
f 510/552/507 511/553/508 506/548/503 505/547/502
f 511/553/508 512/554/509 507/549/504 506/548/503
f 512/554/509 482/524/479 477/519/474 507/549/504
f 513/555/510 514/556/511 509/551/506 508/550/505
f 514/556/511 515/557/512 510/552/507 509/551/506
f 515/557/512 516/558/513 511/553/508 510/552/507
f 516/558/513 517/559/514 512/554/509 511/553/508
f 517/559/514 487/529/484 482/524/479 512/554/509
f 428/560/421 522/561/515 518/562/516 422/563/422
f 522/561/515 523/564/517 519/565/518 518/562/516
f 523/564/517 524/566/519 520/567/520 519/565/518
f 524/566/519 525/568/521 521/569/522 520/567/520
f 525/568/521 493/530/485 488/533/488 521/569/522
f 434/570/432 526/571/523 522/561/515 428/560/421
f 526/571/523 527/572/524 523/564/517 522/561/515
f 527/572/524 528/573/525 524/566/519 523/564/517
f 528/573/525 529/574/526 525/568/521 524/566/519
f 529/574/526 498/540/495 493/530/485 525/568/521
f 440/575/438 530/576/527 526/571/523 434/570/432
f 530/576/527 531/577/528 527/572/524 526/571/523
f 531/577/528 532/578/529 528/573/525 527/572/524
f 532/578/529 533/579/530 529/574/526 528/573/525
f 533/579/530 503/545/500 498/540/495 529/574/526
f 446/580/444 534/581/531 530/576/527 440/575/438
f 534/581/531 535/582/532 531/577/528 530/576/527
f 535/582/532 536/583/533 532/578/529 531/577/528
f 536/583/533 537/584/534 533/579/530 532/578/529
f 537/584/534 508/550/505 503/545/500 533/579/530
f 452/585/450 538/586/535 534/581/531 446/580/444
f 538/586/535 539/587/536 535/582/532 534/581/531
f 539/587/536 540/588/537 536/583/533 535/582/532
f 540/588/537 541/589/538 537/584/534 536/583/533
f 541/589/538 513/555/510 508/550/505 537/584/534
f 453/494/449 543/590/539 542/591/540 452/495/450
f 454/496/451 544/592/541 543/590/539 453/494/449
f 455/497/452 545/593/542 544/592/541 454/496/451
f 456/498/453 546/594/543 545/593/542 455/497/452
f 457/499/454 547/595/544 546/594/543 456/498/453
f 543/590/539 549/596/545 548/597/546 542/591/540
f 544/592/541 550/598/547 549/596/545 543/590/539
f 545/593/542 551/599/548 550/598/547 544/592/541
f 546/594/543 552/600/549 551/599/548 545/593/542
f 547/595/544 553/601/550 552/600/549 546/594/543
f 549/596/545 555/602/551 554/603/552 548/597/546
f 550/598/547 556/604/553 555/602/551 549/596/545
f 551/599/548 557/605/554 556/604/553 550/598/547
f 552/600/549 558/606/555 557/605/554 551/599/548
f 553/601/550 559/607/556 558/606/555 552/600/549
f 555/602/551 561/608/557 560/609/558 554/603/552
f 556/604/553 562/610/559 561/608/557 555/602/551
f 557/605/554 563/611/560 562/610/559 556/604/553
f 558/606/555 564/612/561 563/611/560 557/605/554
f 559/607/556 565/613/562 564/612/561 558/606/555
f 561/608/557 567/614/343 566/615/32 560/609/558
f 562/610/559 568/616/345 567/614/343 561/608/557
f 563/611/560 569/617/346 568/616/345 562/610/559
f 564/612/561 570/618/563 569/617/346 563/611/560
f 565/613/562 571/619/564 570/618/563 564/612/561
f 483/525/480 572/620/565 547/595/544 457/499/454
f 484/526/481 573/621/566 572/620/565 483/525/480
f 485/527/482 574/622/567 573/621/566 484/526/481
f 486/528/483 575/623/568 574/622/567 485/527/482
f 487/529/484 576/624/569 575/623/568 486/528/483
f 572/620/565 577/625/570 553/601/550 547/595/544
f 573/621/566 578/626/571 577/625/570 572/620/565
f 574/622/567 579/627/572 578/626/571 573/621/566
f 575/623/568 580/628/573 579/627/572 574/622/567
f 576/624/569 581/629/574 580/628/573 575/623/568
f 577/625/570 582/630/575 559/607/556 553/601/550
f 578/626/571 583/631/576 582/630/575 577/625/570
f 579/627/572 584/632/577 583/631/576 578/626/571
f 580/628/573 585/633/578 584/632/577 579/627/572
f 581/629/574 586/634/579 585/633/578 580/628/573
f 582/630/575 587/635/580 565/613/562 559/607/556
f 583/631/576 588/636/581 587/635/580 582/630/575
f 584/632/577 589/637/582 588/636/581 583/631/576
f 585/633/578 590/638/583 589/637/582 584/632/577
f 586/634/579 591/639/584 590/638/583 585/633/578
f 587/635/580 592/640/369 571/619/564 565/613/562
f 588/636/581 593/641/370 592/640/369 587/635/580
f 589/637/582 594/642/371 593/641/370 588/636/581
f 590/638/583 595/643/585 594/642/371 589/637/582
f 591/639/584 596/644/36 595/643/585 590/638/583
f 597/645/586 598/646/587 514/556/511 513/555/510
f 598/646/587 599/647/588 515/557/512 514/556/511
f 599/647/588 600/648/589 516/558/513 515/557/512
f 600/648/589 601/649/590 517/559/514 516/558/513
f 601/649/590 576/624/569 487/529/484 517/559/514
f 602/650/591 603/651/592 598/646/587 597/645/586
f 603/651/592 604/652/593 599/647/588 598/646/587
f 604/652/593 605/653/594 600/648/589 599/647/588
f 605/653/594 606/654/595 601/649/590 600/648/589
f 606/654/595 581/629/574 576/624/569 601/649/590
f 607/655/596 608/656/597 603/651/592 602/650/591
f 608/656/597 609/657/598 604/652/593 603/651/592
f 609/657/598 610/658/599 605/653/594 604/652/593
f 610/658/599 611/659/600 606/654/595 605/653/594
f 611/659/600 586/634/579 581/629/574 606/654/595
f 612/660/601 613/661/602 608/656/597 607/655/596
f 613/661/602 614/662/603 609/657/598 608/656/597
f 614/662/603 615/663/604 610/658/599 609/657/598
f 615/663/604 616/664/605 611/659/600 610/658/599
f 616/664/605 591/639/584 586/634/579 611/659/600
f 617/665/606 618/666/607 613/661/602 612/660/601
f 618/666/607 619/667/608 614/662/603 613/661/602
f 619/667/608 620/668/609 615/663/604 614/662/603
f 620/668/609 621/669/398 616/664/605 615/663/604
f 621/669/398 596/644/36 591/639/584 616/664/605
f 542/670/540 622/671/610 538/586/535 452/585/450
f 622/671/610 623/672/611 539/587/536 538/586/535
f 623/672/611 624/673/612 540/588/537 539/587/536
f 624/673/612 625/674/613 541/589/538 540/588/537
f 625/674/613 597/645/586 513/555/510 541/589/538
f 548/675/546 626/676/614 622/671/610 542/670/540
f 626/676/614 627/677/615 623/672/611 622/671/610
f 627/677/615 628/678/616 624/673/612 623/672/611
f 628/678/616 629/679/617 625/674/613 624/673/612
f 629/679/617 602/650/591 597/645/586 625/674/613
f 554/680/552 630/681/618 626/676/614 548/675/546
f 630/681/618 631/682/619 627/677/615 626/676/614
f 631/682/619 632/683/620 628/678/616 627/677/615
f 632/683/620 633/684/621 629/679/617 628/678/616
f 633/684/621 607/655/596 602/650/591 629/679/617
f 560/685/558 634/686/622 630/681/618 554/680/552
f 634/686/622 635/687/623 631/682/619 630/681/618
f 635/687/623 636/688/624 632/683/620 631/682/619
f 636/688/624 637/689/625 633/684/621 632/683/620
f 637/689/625 612/660/601 607/655/596 633/684/621
f 566/690/32 638/691/626 634/686/622 560/685/558
f 638/691/626 639/692/627 635/687/623 634/686/622
f 639/692/627 640/693/628 636/688/624 635/687/623
f 640/693/628 641/694/418 637/689/625 636/688/624
f 641/694/418 617/665/606 612/660/601 637/689/625
f 567/614/343 643/695/629 642/696/630 566/615/32
f 568/616/345 644/697/631 643/695/629 567/614/343
f 569/617/346 645/698/632 644/697/631 568/616/345
f 570/618/563 646/699/633 645/698/632 569/617/346
f 571/619/564 647/700/634 646/699/633 570/618/563
f 643/695/629 649/701/635 648/702/636 642/696/630
f 644/697/631 650/703/637 649/701/635 643/695/629
f 645/698/632 651/704/638 650/703/637 644/697/631
f 646/699/633 652/705/639 651/704/638 645/698/632
f 647/700/634 653/706/640 652/705/639 646/699/633
f 649/701/635 655/707/641 654/708/642 648/702/636
f 650/703/637 656/709/643 655/707/641 649/701/635
f 651/704/638 657/710/644 656/709/643 650/703/637
f 652/705/639 658/711/645 657/710/644 651/704/638
f 653/706/640 659/712/646 658/711/645 652/705/639
f 655/707/641 661/713/647 660/714/642 654/708/642
f 656/709/643 662/715/643 661/713/647 655/707/641
f 657/710/644 663/716/648 662/715/643 656/709/643
f 658/711/645 664/717/649 663/716/648 657/710/644
f 659/712/646 665/718/646 664/717/649 658/711/645
f 661/713/647 667/719/343 666/720/32 660/714/642
f 662/715/643 668/721/345 667/719/343 661/713/647
f 663/716/648 669/722/650 668/721/345 662/715/643
f 664/717/649 670/723/651 669/722/650 663/716/648
f 665/718/646 671/724/564 670/723/651 664/717/649
f 592/640/369 672/725/652 647/700/634 571/619/564
f 593/641/370 673/726/653 672/725/652 592/640/369
f 594/642/371 674/727/654 673/726/653 593/641/370
f 595/643/585 675/728/655 674/727/654 594/642/371
f 596/644/36 676/729/656 675/728/655 595/643/585
f 672/725/652 677/730/657 653/706/640 647/700/634
f 673/726/653 678/731/658 677/730/657 672/725/652
f 674/727/654 679/732/659 678/731/658 673/726/653
f 675/728/655 680/733/660 679/732/659 674/727/654
f 676/729/656 681/734/661 680/733/660 675/728/655
f 677/730/657 682/735/662 659/712/646 653/706/640
f 678/731/658 683/736/663 682/735/662 677/730/657
f 679/732/659 684/737/664 683/736/663 678/731/658
f 680/733/660 685/738/665 684/737/664 679/732/659
f 681/734/661 686/739/666 685/738/665 680/733/660
f 682/735/662 687/740/667 665/718/646 659/712/646
f 683/736/663 688/741/663 687/740/667 682/735/662
f 684/737/664 689/742/668 688/741/663 683/736/663
f 685/738/665 690/743/669 689/742/668 684/737/664
f 686/739/666 691/744/666 690/743/669 685/738/665
f 687/740/667 692/745/369 671/724/564 665/718/646
f 688/741/663 693/746/370 692/745/369 687/740/667
f 689/742/668 694/747/670 693/746/370 688/741/663
f 690/743/669 695/748/671 694/747/670 689/742/668
f 691/744/666 696/749/36 695/748/671 690/743/669
f 697/750/672 698/751/673 618/666/607 617/665/606
f 698/751/673 699/752/674 619/667/608 618/666/607
f 699/752/674 700/753/675 620/668/609 619/667/608
f 700/753/675 701/754/676 621/669/398 620/668/609
f 701/754/676 676/729/656 596/644/36 621/669/398
f 702/755/677 703/756/678 698/751/673 697/750/672
f 703/756/678 704/757/679 699/752/674 698/751/673
f 704/757/679 705/758/680 700/753/675 699/752/674
f 705/758/680 706/759/681 701/754/676 700/753/675
f 706/759/681 681/734/661 676/729/656 701/754/676
f 707/760/682 708/761/683 703/756/678 702/755/677
f 708/761/683 709/762/684 704/757/679 703/756/678
f 709/762/684 710/763/685 705/758/680 704/757/679
f 710/763/685 711/764/686 706/759/681 705/758/680
f 711/764/686 686/739/666 681/734/661 706/759/681
f 712/765/682 713/766/687 708/761/683 707/760/682
f 713/766/687 714/767/688 709/762/684 708/761/683
f 714/767/688 715/768/689 710/763/685 709/762/684
f 715/768/689 716/769/690 711/764/686 710/763/685
f 716/769/690 691/744/666 686/739/666 711/764/686
f 717/770/606 718/771/607 713/766/687 712/765/682
f 718/771/607 719/772/691 714/767/688 713/766/687
f 719/772/691 720/773/397 715/768/689 714/767/688
f 720/773/397 721/774/692 716/769/690 715/768/689
f 721/774/692 696/749/36 691/744/666 716/769/690
f 642/775/630 722/776/693 638/691/626 566/690/32
f 722/776/693 723/777/694 639/692/627 638/691/626
f 723/777/694 724/778/695 640/693/628 639/692/627
f 724/778/695 725/779/696 641/694/418 640/693/628
f 725/779/696 697/750/672 617/665/606 641/694/418
f 648/780/636 726/781/697 722/776/693 642/775/630
f 726/781/697 727/782/698 723/777/694 722/776/693
f 727/782/698 728/783/699 724/778/695 723/777/694
f 728/783/699 729/784/700 725/779/696 724/778/695
f 729/784/700 702/755/677 697/750/672 725/779/696
f 654/785/642 730/786/701 726/781/697 648/780/636
f 730/786/701 731/787/702 727/782/698 726/781/697
f 731/787/702 732/788/703 728/783/699 727/782/698
f 732/788/703 733/789/704 729/784/700 728/783/699
f 733/789/704 707/760/682 702/755/677 729/784/700
f 660/790/642 734/791/705 730/786/701 654/785/642
f 734/791/705 735/792/706 731/787/702 730/786/701
f 735/792/706 736/793/707 732/788/703 731/787/702
f 736/793/707 737/794/708 733/789/704 732/788/703
f 737/794/708 712/765/682 707/760/682 733/789/704
f 666/795/32 738/796/626 734/791/705 660/790/642
f 738/796/626 739/797/709 735/792/706 734/791/705
f 739/797/709 740/798/417 736/793/707 735/792/706
f 740/798/417 741/799/710 737/794/708 736/793/707
f 741/799/710 717/770/606 712/765/682 737/794/708
